# Blender v2.82 (sub 7) OBJ File: 'Cliff.blend'
# www.blender.org
mtllib Cliff_2.mtl
o Cliff_2_Plane
v -29.048876 0.000038 27.659239
v 4.135597 0.000038 29.985531
v 25.198971 0.000038 23.006674
v -60.741947 0.000038 30.683411
v -100.419479 0.000038 18.819365
v -124.049675 0.000038 -7.644430
v 43.538834 0.000038 36.071083
v 59.057152 0.000038 32.386253
v 67.169006 0.000038 39.755920
v 77.044319 0.000038 56.505131
v 129.947723 0.000038 62.869854
v 167.332825 0.000038 56.505131
v 180.735046 0.000038 43.775707
v 200.132965 0.000038 -1.782196
v 181.440399 0.000038 -53.034859
v 149.698364 0.000038 -73.133942
v 119.719749 0.000038 -79.163666
v 97.853012 0.000038 -69.114136
v 84.098122 0.000038 -84.858414
v 92.915367 0.000038 -97.587852
v 86.919640 0.000038 -124.386612
v 42.128090 0.000038 -131.756287
v 25.904369 0.000038 -120.701797
v -6.543036 0.000038 -90.218178
v -52.392639 0.000038 -90.218178
v -94.715363 0.000038 -101.942642
v -130.689667 0.000038 -79.833649
v -142.328415 0.000038 -39.635475
v -27.783257 18.249746 26.623182
v 4.784683 18.249746 28.906246
v 25.456738 18.249746 22.057055
v -58.887505 18.249746 29.591160
v -97.827850 18.249746 17.947540
v -121.019058 18.249746 -8.024595
v 43.455864 18.249746 34.878746
v 58.685883 18.249746 31.262371
v 66.647026 18.249746 38.495113
v 76.338860 18.249746 54.933155
v 128.259369 18.249746 61.179611
v 164.949921 18.249746 54.933155
v 178.103088 18.249746 42.440254
v 197.140686 18.249746 -2.271275
v 178.795410 18.249746 -52.571724
v 147.643097 18.249746 -72.297401
v 118.221428 18.249746 -78.215088
v 96.760956 18.249746 -68.352280
v 83.261612 18.249746 -83.804047
v 91.915039 18.249746 -96.296982
v 86.030708 18.249746 -122.597870
v 42.071335 18.249746 -129.830597
v 26.149036 18.249746 -118.981506
v -5.695547 18.249746 -89.064232
v -50.693333 18.249746 -89.064232
v -92.229752 18.249746 -100.570877
v -127.535690 18.249746 -78.872635
v -138.958191 18.249746 -39.421288
v -18.298260 46.085644 21.180002
v 10.967915 46.832226 23.190825
v 29.534199 47.264057 17.007088
v -46.242889 45.398705 23.887932
v -81.246223 44.460869 13.470268
v -102.115616 43.805859 -9.848604
v 45.722504 47.735245 28.510559
v 59.402817 48.060638 25.240044
v 66.564911 48.276966 31.731987
v 75.293198 48.578999 46.497116
v 121.953102 49.782429 52.046227
v 154.913269 50.578827 46.383873
v 166.716797 50.812363 35.136143
v 183.768738 51.015430 -5.083111
v 167.224213 50.346493 -50.278938
v 139.208984 49.543465 -67.972191
v 112.765526 48.849468 -73.254486
v 93.494423 48.415119 -64.360550
v 81.346176 48.032154 -78.234184
v 89.106499 48.164139 -89.476181
v 83.787506 47.898048 -113.112717
v 44.279770 46.869297 -119.558670
v 29.986134 46.564938 -109.785141
v 1.408770 45.997864 -82.849297
v -39.023289 44.982327 -82.791786
v -76.359085 43.986595 -93.082985
v -108.056473 43.299747 -73.531494
v -118.272430 43.241886 -38.050789
v -26.800282 68.413643 23.816906
v 7.248487 80.541199 24.809532
v 26.435127 80.541199 18.452494
v -54.647919 74.501778 25.905277
v -89.011719 82.455185 14.277754
v -108.858109 87.602783 -10.299871
v 43.140907 80.541199 30.352859
v 57.276566 80.541199 26.996357
v 64.665657 80.541199 33.709377
v 78.068535 81.723259 49.216423
v 126.165337 84.405464 54.776356
v 160.104095 86.251305 48.811089
v 172.223053 86.865303 37.156025
v 189.639648 87.630096 -4.428547
v 172.421478 86.458633 -51.029289
v 143.488953 84.774963 -69.194496
v 116.223030 83.243988 -74.552208
v 92.615730 80.541199 -65.460403
v 80.949730 75.689659 -81.682724
v 88.232468 76.507233 -93.674187
v 81.444221 80.450356 -117.295288
v 40.717712 85.438049 -120.938019
v 26.677059 85.503128 -109.957870
v -2.478672 80.541199 -84.684074
v -43.477959 75.441887 -83.943550
v -80.162399 83.905830 -95.499451
v -112.367958 90.420784 -76.133041
v -123.842194 91.828621 -39.795376
v -20.293571 67.437813 8.931473
v 10.438766 80.541183 9.139136
v 27.702015 80.541183 4.664656
v -45.330677 72.928177 10.271379
v -76.323822 80.035057 1.924419
v -94.346161 84.556824 -15.471840
v 42.733116 80.541183 13.040898
v 55.451721 80.541183 10.678362
v 62.100082 80.541183 15.403435
v 79.285995 87.053947 26.346180
v 122.555565 89.461578 30.213106
v 153.097748 91.128067 25.981472
v 164.013275 91.691910 17.766088
v 179.724731 92.420792 -11.520885
v 164.278442 91.412590 -44.305054
v 138.264343 89.915680 -57.062996
v 113.737129 88.543579 -60.807739
v 87.248238 80.541183 -54.398666
v 75.974945 80.541183 -64.493118
v 74.215622 77.266266 -91.425186
v 42.031319 81.570778 -93.408928
v 29.286057 81.904099 -85.470207
v 1.686695 80.541183 -67.929535
v -36.036419 73.272408 -67.013062
v -69.116707 80.839218 -75.320465
v -97.955559 86.792816 -61.836723
v -108.028198 88.226303 -36.307659
v -4.704266 0.000038 7.730191
v 16.621098 0.000038 9.225134
v 30.157093 0.000038 4.740316
v -25.071180 0.000038 9.673610
v -50.569206 0.000038 2.049419
v -65.754715 0.000038 -14.957031
v 41.942841 0.000038 13.135893
v 51.915390 0.000038 10.767913
v 57.128334 0.000038 15.503891
v 63.474503 0.000038 26.267467
v 97.471878 0.000038 30.357624
v 121.496681 0.000038 26.267483
v 130.109344 0.000038 18.087151
v 142.575043 0.000038 -11.189785
v 130.562653 0.000038 -44.126328
v 110.164238 0.000038 -57.042610
v 90.899048 0.000038 -60.917503
v 76.846802 0.000038 -54.459366
v 68.007492 0.000038 -64.577126
v 73.673729 0.000038 -72.757462
v 69.820694 0.000038 -89.979172
v 41.036255 0.000038 -94.715149
v 30.610390 0.000038 -87.611176
v 9.758690 0.000038 -68.021477
v -19.705671 0.000038 -68.021477
v -46.903557 0.000038 -75.555977
v -70.021774 0.000038 -61.348061
v -77.501198 0.000038 -35.515465
v 39.072876 0.000038 -28.106754
vt 0.354259 0.000120
vt 0.483645 0.052631
vt 0.455982 0.099155
vt 0.347920 0.053050
vt 0.004577 0.524733
vt 0.000120 0.439794
vt 0.057419 0.438170
vt 0.062429 0.514469
vt 0.130208 0.783023
vt 0.164546 0.734839
vt 0.234252 0.778920
vt 0.218787 0.832272
vt 0.549952 0.118456
vt 0.510681 0.154357
vt 0.003582 0.383662
vt 0.060814 0.387698
vt 0.587915 0.180082
vt 0.543450 0.207358
vt 0.019344 0.607659
vt 0.074948 0.586795
vt 0.609927 0.231094
vt 0.562519 0.252871
vt 0.063235 0.710012
vt 0.110519 0.673970
vt 0.627941 0.275709
vt 0.579831 0.293170
vt 0.641218 0.308892
vt 0.592391 0.322806
vt 0.009783 0.326998
vt 0.064292 0.336503
vt 0.658417 0.371466
vt 0.609033 0.377199
vt 0.017890 0.288588
vt 0.072538 0.302494
vt 0.658417 0.475648
vt 0.606365 0.467793
vt 0.023807 0.261719
vt 0.077456 0.278232
vt 0.645756 0.523198
vt 0.593535 0.506100
vt 0.038079 0.212629
vt 0.088418 0.236151
vt 0.593931 0.626178
vt 0.544597 0.594335
vt 0.105239 0.095710
vt 0.145741 0.135801
vt 0.523358 0.723007
vt 0.482155 0.680142
vt 0.180916 0.031829
vt 0.206309 0.082193
vt 0.437247 0.801194
vt 0.410937 0.748349
vt 0.226176 0.012869
vt 0.241497 0.066365
vt 0.331593 0.841587
vt 0.326282 0.783823
vt 0.326320 0.707053
vt 0.391600 0.671750
vt 0.343500 0.132608
vt 0.268375 0.144013
vt 0.252000 0.704379
vt 0.417908 0.168544
vt 0.138204 0.424856
vt 0.140926 0.484644
vt 0.201091 0.665881
vt 0.455828 0.210604
vt 0.142150 0.388006
vt 0.479299 0.252322
vt 0.145331 0.542847
vt 0.492611 0.286084
vt 0.164801 0.615026
vt 0.507441 0.315445
vt 0.518054 0.337017
vt 0.145639 0.346375
vt 0.534642 0.379512
vt 0.151191 0.321279
vt 0.534937 0.451905
vt 0.154283 0.304035
vt 0.523206 0.482037
vt 0.161173 0.272139
vt 0.482654 0.544244
vt 0.200796 0.196594
vt 0.439329 0.611724
vt 0.243147 0.156648
vt 0.374254 0.571298
vt 0.409372 0.497273
vt 0.279283 0.204686
vt 0.255305 0.230394
vt 0.341554 0.618396
vt 0.294140 0.198295
vt 0.310688 0.630010
vt 0.335079 0.194157
vt 0.282631 0.625249
vt 0.377109 0.212227
vt 0.216561 0.432537
vt 0.203393 0.497138
vt 0.258437 0.609985
vt 0.400318 0.240598
vt 0.226983 0.396303
vt 0.413866 0.271954
vt 0.211751 0.546967
vt 0.413202 0.319464
vt 0.233015 0.587371
vt 0.446748 0.356657
vt 0.471947 0.370507
vt 0.221290 0.359326
vt 0.481750 0.396460
vt 0.231172 0.333956
vt 0.470081 0.431685
vt 0.228567 0.314027
vt 0.456176 0.447415
vt 0.228571 0.281354
vt 0.256570 0.337530
vt 0.260062 0.350588
vt 0.418985 0.438664
vt 0.435879 0.421558
vt 0.256103 0.300875
vt 0.378273 0.480405
vt 0.280576 0.249685
vt 0.353318 0.543362
vt 0.298836 0.220964
vt 0.334301 0.593910
vt 0.310081 0.212345
vt 0.306475 0.612361
vt 0.339463 0.205146
vt 0.282711 0.613075
vt 0.369063 0.221518
vt 0.243259 0.429194
vt 0.235293 0.487858
vt 0.265991 0.595004
vt 0.384840 0.249312
vt 0.256165 0.400143
vt 0.394712 0.279653
vt 0.232726 0.530007
vt 0.388080 0.328848
vt 0.247043 0.571829
vt 0.404345 0.354546
vt 0.455241 0.379649
vt 0.249062 0.369891
vt 0.820217 0.611372
vt 0.766589 0.556489
vt 0.798355 0.462657
vt 0.832853 0.497929
vt 0.850888 0.000120
vt 0.941645 0.018302
vt 0.911041 0.116338
vt 0.852743 0.104794
vt 0.898636 0.616810
vt 0.883269 0.501400
vt 0.761946 0.050949
vt 0.795826 0.137732
vt 0.975835 0.333466
vt 0.983150 0.392705
vt 0.937701 0.357192
vt 0.933026 0.319111
vt 0.951310 0.572798
vt 0.917160 0.473080
vt 0.735087 0.114138
vt 0.778819 0.178504
vt 0.955582 0.298993
vt 0.920022 0.296893
vt 0.733855 0.169479
vt 0.778373 0.214194
vt 0.999880 0.447325
vt 0.948435 0.392347
vt 0.760189 0.204572
vt 0.795806 0.237452
vt 0.991911 0.521451
vt 0.943280 0.440050
vt 0.733205 0.235343
vt 0.780555 0.257150
vt 0.706132 0.224827
vt 0.760136 0.249169
vt 0.973487 0.262051
vt 0.931539 0.273110
vt 0.658657 0.246162
vt 0.729216 0.262738
vt 0.961380 0.236086
vt 0.923744 0.256398
vt 0.661911 0.327902
vt 0.731051 0.315345
vt 0.972270 0.219194
vt 0.930756 0.245517
vt 0.688439 0.352134
vt 0.748071 0.330981
vt 0.999880 0.195904
vt 0.948560 0.230497
vt 0.756806 0.397308
vt 0.791990 0.360174
vt 0.993922 0.100831
vt 0.944679 0.169334
vt 0.773201 0.477802
vt 0.802584 0.412013
vt 0.969673 0.037382
vt 0.929064 0.128590
vt 0.855740 0.293065
vn 0.8206 -0.5708 0.0257
vn 0.6345 -0.5922 -0.4966
vn 0.7632 0.2167 -0.6087
vn 0.9632 0.2673 0.0283
vn 0.0115 -0.7067 0.7073
vn 0.0912 -0.6457 0.7581
vn 0.1125 0.1147 0.9870
vn 0.0185 0.1200 0.9926
vn -0.6329 -0.6296 0.4506
vn -0.7647 0.3492 0.5415
vn -0.9121 0.3963 0.1044
vn -0.8232 -0.5602 0.0917
vn 0.2942 -0.6365 -0.7129
vn 0.3712 0.1534 -0.9158
vn -0.0862 -0.8102 0.5797
vn -0.1318 0.1220 0.9837
vn -0.0771 -0.6272 -0.7750
vn -0.1077 0.0916 -0.9899
vn -0.0837 -0.6401 0.7637
vn -0.1137 0.1674 0.9793
vn 0.0976 -0.8583 -0.5037
vn 0.1998 0.1030 -0.9744
vn -0.4371 -0.6062 0.6644
vn -0.5301 0.2818 0.7997
vn 0.5018 -0.8648 -0.0171
vn 0.9980 0.0556 -0.0295
vn 0.7797 -0.6111 0.1361
vn 0.9837 0.0508 0.1724
vn -0.1498 -0.6009 0.7851
vn -0.1966 0.1400 0.9704
vn 0.5620 -0.5608 -0.6079
vn 0.6620 0.1889 -0.7253
vn -0.1507 -0.8145 0.5602
vn -0.2476 0.1293 0.9602
vn -0.1690 -0.5936 -0.7868
vn -0.2153 0.2176 -0.9520
vn -0.5285 -0.7354 0.4241
vn -0.7766 0.0793 0.6249
vn -0.4688 -0.6599 -0.5871
vn -0.6135 0.2017 -0.7635
vn -0.4230 -0.5997 0.6792
vn -0.5350 0.1291 0.8349
vn -0.2286 -0.7779 -0.5853
vn -0.3475 0.1863 -0.9189
vn 0.0250 -0.6406 0.7674
vn 0.0262 0.1885 0.9817
vn 0.0991 -0.7220 -0.6848
vn 0.1470 0.1038 -0.9836
vn 0.3695 -0.5955 0.7133
vn 0.4367 0.2409 0.8667
vn -0.1370 -0.5905 -0.7953
vn -0.1675 0.2410 -0.9560
vn 0.6559 -0.6040 0.4527
vn 0.7905 0.2689 0.5502
vn -0.6604 -0.5699 -0.4889
vn -0.7424 0.3780 -0.5531
vn -0.7441 0.2786 -0.6071
vn -0.0562 0.1171 -0.9915
vn 0.9926 0.1209 0.0132
vn 0.8148 0.1225 0.5666
vn -0.9433 0.3075 0.1246
vn 0.7578 0.0963 -0.6453
vn 0.1549 0.0593 0.9861
vn 0.0027 0.0593 0.9982
vn -0.7945 0.2243 0.5643
vn 0.3537 0.0733 -0.9324
vn -0.1748 0.0656 0.9824
vn -0.1373 0.0476 -0.9893
vn -0.0665 0.0716 0.9952
vn 0.2363 0.0591 -0.9698
vn -0.5029 0.1533 0.8506
vn 0.9925 0.0598 -0.1067
vn 0.9733 0.0487 0.2242
vn -0.1779 0.0799 0.9808
vn 0.7089 0.1265 -0.6939
vn -0.2526 0.0626 0.9655
vn -0.2246 0.1459 -0.9634
vn -0.7537 0.0407 0.6559
vn -0.6246 0.1259 -0.7707
vn -0.5585 0.0759 0.8260
vn -0.3859 0.1083 -0.9161
vn 0.0121 0.1028 0.9946
vn 0.1108 0.0768 -0.9908
vn 0.4248 0.1201 0.8973
vn 0.1814 0.7075 -0.6830
vn -0.3214 0.7879 -0.5253
vn 0.3684 0.5319 0.7624
vn 0.0025 0.5668 0.8238
vn -0.0269 0.6150 -0.7880
vn 0.6874 0.5213 0.5057
vn -0.5537 0.6681 -0.4970
vn 0.8872 0.4588 0.0481
vn -0.7323 0.6748 0.0917
vn 0.6973 0.4344 -0.5700
vn -0.0570 0.7144 0.6973
vn 0.0277 0.6274 0.7782
vn -0.5335 0.6928 0.4852
vn 0.3017 0.4949 -0.8149
vn -0.0720 0.8098 0.5822
vn -0.1071 0.5161 -0.8498
vn 0.0120 0.6141 0.7891
vn -0.0478 0.7694 -0.6369
vn -0.3555 0.6283 0.6919
vn 0.6752 0.7340 -0.0730
vn 0.7816 0.6054 0.1500
vn -0.1659 0.5980 0.7841
vn 0.5408 0.5994 -0.5901
vn -0.1366 0.8108 0.5691
vn -0.1644 0.6690 -0.7248
vn -0.6513 0.5773 0.4924
vn -0.4433 0.7354 -0.5126
vn -0.4238 0.5321 0.7329
vn -0.1821 0.9829 -0.0268
vn -0.0661 0.9975 -0.0238
vn -0.1019 0.9933 0.0546
vn 0.0596 0.9946 0.0849
vn -0.2109 0.9747 0.0736
vn 0.0231 0.9907 0.1340
vn -0.0528 0.9922 0.1128
vn 0.0280 0.9984 0.0486
vn 0.0049 0.9936 0.1128
vn 0.2156 0.9760 0.0303
vn 0.1012 0.9905 0.0924
vn 0.2459 0.9677 -0.0561
vn 0.1700 0.9672 -0.1888
vn -0.1524 0.9874 -0.0414
vn -0.0762 0.9968 0.0237
vn 0.0207 0.9773 -0.2108
vn 0.0114 0.9999 -0.0058
vn -0.1398 0.9701 -0.1983
vn 0.1428 0.9884 0.0517
vn -0.1295 0.9856 -0.1089
vn 0.1714 0.9849 0.0250
vn -0.0126 0.9961 -0.0872
vn 0.1081 0.9913 0.0752
vn -0.0184 0.9997 -0.0128
vn 0.0000 -1.0000 0.0000
usemtl None
s 1
f 14/1/1 15/2/2 43/3/3 42/4/4
f 1/5/5 2/6/6 30/7/7 29/8/8
f 6/9/9 34/10/10 56/11/11 28/12/12
f 15/2/2 16/13/13 44/14/14 43/3/3
f 2/6/6 3/15/15 31/16/16 30/7/7
f 16/13/13 17/17/17 45/18/18 44/14/14
f 4/19/19 1/5/5 29/8/8 32/20/20
f 17/17/17 18/21/21 46/22/22 45/18/18
f 5/23/23 4/19/19 32/20/20 33/24/24
f 18/21/21 19/25/25 47/26/26 46/22/22
f 6/9/9 5/23/23 33/24/24 34/10/10
f 19/25/25 20/27/27 48/28/28 47/26/26
f 3/15/15 7/29/29 35/30/30 31/16/16
f 20/27/27 21/31/31 49/32/32 48/28/28
f 7/29/29 8/33/33 36/34/34 35/30/30
f 21/31/31 22/35/35 50/36/36 49/32/32
f 8/33/33 9/37/37 37/38/38 36/34/34
f 22/35/35 23/39/39 51/40/40 50/36/36
f 9/37/37 10/41/41 38/42/42 37/38/38
f 23/39/39 24/43/43 52/44/44 51/40/40
f 10/41/41 11/45/45 39/46/46 38/42/42
f 24/43/43 25/47/47 53/48/48 52/44/44
f 11/45/45 12/49/49 40/50/50 39/46/46
f 25/47/47 26/51/51 54/52/52 53/48/48
f 12/49/49 13/53/53 41/54/54 40/50/50
f 26/51/51 27/55/55 55/56/56 54/52/52
f 13/53/53 14/1/1 42/4/4 41/54/54
f 27/55/55 28/12/12 56/11/11 55/56/56
f 54/52/52 55/56/56 83/57/57 82/58/58
f 41/54/54 42/4/4 70/59/59 69/60/60
f 55/56/56 56/11/11 84/61/61 83/57/57
f 42/4/4 43/3/3 71/62/62 70/59/59
f 29/8/8 30/7/7 58/63/63 57/64/64
f 34/10/10 62/65/65 84/61/61 56/11/11
f 43/3/3 44/14/14 72/66/66 71/62/62
f 30/7/7 31/16/16 59/67/67 58/63/63
f 44/14/14 45/18/18 73/68/68 72/66/66
f 32/20/20 29/8/8 57/64/64 60/69/69
f 45/18/18 46/22/22 74/70/70 73/68/68
f 33/24/24 32/20/20 60/69/69 61/71/71
f 46/22/22 47/26/26 75/72/72 74/70/70
f 34/10/10 33/24/24 61/71/71 62/65/65
f 47/26/26 48/28/28 76/73/73 75/72/72
f 31/16/16 35/30/30 63/74/74 59/67/67
f 48/28/28 49/32/32 77/75/75 76/73/73
f 35/30/30 36/34/34 64/76/76 63/74/74
f 49/32/32 50/36/36 78/77/77 77/75/75
f 36/34/34 37/38/38 65/78/78 64/76/76
f 50/36/36 51/40/40 79/79/79 78/77/77
f 37/38/38 38/42/42 66/80/80 65/78/78
f 51/40/40 52/44/44 80/81/81 79/79/79
f 38/42/42 39/46/46 67/82/82 66/80/80
f 52/44/44 53/48/48 81/83/83 80/81/81
f 39/46/46 40/50/50 68/84/84 67/82/82
f 53/48/48 54/52/52 82/58/58 81/83/83
f 40/50/50 41/54/54 69/60/60 68/84/84
f 80/81/81 81/83/83 109/85/85 108/86/86
f 67/82/82 68/84/84 96/87/87 95/88/88
f 81/83/83 82/58/58 110/89/89 109/85/85
f 68/84/84 69/60/60 97/90/90 96/87/87
f 82/58/58 83/57/57 111/91/91 110/89/89
f 69/60/60 70/59/59 98/92/92 97/90/90
f 83/57/57 84/61/61 112/93/93 111/91/91
f 70/59/59 71/62/62 99/94/94 98/92/92
f 57/64/64 58/63/63 86/95/95 85/96/96
f 62/65/65 90/97/97 112/93/93 84/61/61
f 71/62/62 72/66/66 100/98/98 99/94/94
f 58/63/63 59/67/67 87/99/99 86/95/95
f 72/66/66 73/68/68 101/100/100 100/98/98
f 60/69/69 57/64/64 85/96/96 88/101/101
f 73/68/68 74/70/70 102/102/102 101/100/100
f 61/71/71 60/69/69 88/101/101 89/103/103
f 74/70/70 75/72/72 103/104/104 102/102/102
f 62/65/65 61/71/71 89/103/103 90/97/97
f 75/72/72 76/73/73 104/105/105 103/104/104
f 59/67/67 63/74/74 91/106/106 87/99/99
f 76/73/73 77/75/75 105/107/107 104/105/105
f 63/74/74 64/76/76 92/108/108 91/106/106
f 77/75/75 78/77/77 106/109/109 105/107/107
f 64/76/76 65/78/78 93/110/110 92/108/108
f 78/77/77 79/79/79 107/111/111 106/109/109
f 65/78/78 66/80/80 94/112/112 93/110/110
f 79/79/79 80/81/81 108/86/86 107/111/111
f 66/80/80 67/82/82 95/88/88 94/112/112
f 92/108/108 93/110/110 121/113/113 120/114/114
f 106/109/109 107/111/111 134/115/115 133/116/116
f 93/110/110 94/112/112 122/117/117 121/113/113
f 107/111/111 108/86/86 135/118/118 134/115/115
f 94/112/112 95/88/88 123/119/119 122/117/117
f 108/86/86 109/85/85 136/120/120 135/118/118
f 95/88/88 96/87/87 124/121/121 123/119/119
f 109/85/85 110/89/89 137/122/122 136/120/120
f 96/87/87 97/90/90 125/123/123 124/121/121
f 110/89/89 111/91/91 138/124/122 137/122/122
f 97/90/90 98/92/92 126/125/124 125/123/123
f 111/91/91 112/93/93 139/126/122 138/124/122
f 98/92/92 99/94/94 127/127/125 126/125/124
f 85/96/96 86/95/95 114/128/126 113/129/127
f 90/97/97 118/130/122 139/126/122 112/93/93
f 99/94/94 100/98/98 128/131/128 127/127/125
f 86/95/95 87/99/99 115/132/129 114/128/126
f 100/98/98 101/100/100 129/133/130 128/131/128
f 88/101/101 85/96/96 113/129/127 116/134/131
f 101/100/100 102/102/102 130/135/132 129/133/130
f 89/103/103 88/101/101 116/134/131 117/136/133
f 102/102/102 103/104/104 131/137/134 130/135/132
f 90/97/97 89/103/103 117/136/133 118/130/122
f 131/137/134 103/104/104 132/138/135
f 87/99/99 91/106/106 119/139/136 115/132/129
f 103/104/104 104/105/105 105/107/107 132/138/135
f 91/106/106 92/108/108 120/114/114 119/139/136
f 105/107/107 106/109/109 133/116/116 132/138/135
f 138/124/122 139/126/122 118/130/122 137/122/122
f 118/130/122 117/136/133 136/120/120 137/122/122
f 117/136/133 116/134/131 135/118/118 136/120/120
f 116/134/131 113/129/127 134/115/115 135/118/118
f 113/129/127 114/128/126 133/116/116 134/115/115
f 114/128/126 115/132/129 132/138/135 133/116/116
f 115/132/129 119/139/136 131/137/134 132/138/135
f 124/121/121 125/123/123 126/125/124 127/127/125
f 123/119/119 124/121/121 127/127/125 128/131/128
f 122/117/117 123/119/119 128/131/128 129/133/130
f 122/117/117 129/133/130 121/113/113
f 120/114/114 121/113/113 129/133/130 130/135/132
f 119/139/136 120/114/114 130/135/132 131/137/134
f 27/140/55 26/141/51 165/142/137 166/143/137
f 14/144/1 13/145/53 152/146/137 153/147/137
f 28/148/12 27/140/55 166/143/137 167/149/137
f 15/150/2 14/144/1 153/147/137 154/151/137
f 2/152/6 1/153/5 140/154/137 141/155/137
f 6/156/9 28/148/12 167/149/137 145/157/137
f 16/158/13 15/150/2 154/151/137 155/159/137
f 3/160/15 2/152/6 141/155/137 142/161/137
f 17/162/17 16/158/13 155/159/137 156/163/137
f 1/153/5 4/164/19 143/165/137 140/154/137
f 18/166/21 17/162/17 156/163/137 157/167/137
f 4/164/19 5/168/23 144/169/137 143/165/137
f 19/170/25 18/166/21 157/167/137 158/171/137
f 5/168/23 6/156/9 145/157/137 144/169/137
f 20/172/27 19/170/25 158/171/137 159/173/137
f 7/174/29 3/160/15 142/161/137 146/175/137
f 21/176/31 20/172/27 159/173/137 160/177/137
f 8/178/33 7/174/29 146/175/137 147/179/137
f 22/180/35 21/176/31 160/177/137 161/181/137
f 9/182/37 8/178/33 147/179/137 148/183/137
f 23/184/39 22/180/35 161/181/137 162/185/137
f 10/186/41 9/182/37 148/183/137 149/187/137
f 24/188/43 23/184/39 162/185/137 163/189/137
f 11/190/45 10/186/41 149/187/137 150/191/137
f 25/192/47 24/188/43 163/189/137 164/193/137
f 12/194/49 11/190/45 150/191/137 151/195/137
f 26/141/51 25/192/47 164/193/137 165/142/137
f 13/145/53 12/194/49 151/195/137 152/146/137
f 158/171/137 157/167/137 168/196/137
f 144/169/137 145/157/137 168/196/137
f 159/173/137 158/171/137 168/196/137
f 146/175/137 142/161/137 168/196/137
f 160/177/137 159/173/137 168/196/137
f 147/179/137 146/175/137 168/196/137
f 161/181/137 160/177/137 168/196/137
f 148/183/137 147/179/137 168/196/137
f 162/185/137 161/181/137 168/196/137
f 149/187/137 148/183/137 168/196/137
f 163/189/137 162/185/137 168/196/137
f 150/191/137 149/187/137 168/196/137
f 164/193/137 163/189/137 168/196/137
f 151/195/137 150/191/137 168/196/137
f 165/142/137 164/193/137 168/196/137
f 152/146/137 151/195/137 168/196/137
f 166/143/137 165/142/137 168/196/137
f 153/147/137 152/146/137 168/196/137
f 167/149/137 166/143/137 168/196/137
f 154/151/137 153/147/137 168/196/137
f 141/155/137 140/154/137 168/196/137
f 145/157/137 167/149/137 168/196/137
f 155/159/137 154/151/137 168/196/137
f 142/161/137 141/155/137 168/196/137
f 156/163/137 155/159/137 168/196/137
f 140/154/137 143/165/137 168/196/137
f 157/167/137 156/163/137 168/196/137
f 143/165/137 144/169/137 168/196/137
