# Blender v2.82 (sub 7) OBJ File: 'tutorial - levelAssets.blend'
# www.blender.org
mtllib buildingEntrance2.mtl
o Entrance_2_Sphere.001
v -0.285116 2.779292 0.152630
v -0.473257 2.538133 0.152630
v -0.615187 2.177260 0.152630
v -0.700836 1.588399 0.152630
v -0.700836 0.000000 0.152630
v -0.296553 2.799295 0.043324
v -0.303416 2.811296 0.043324
v -0.309547 2.822018 0.008063
v -0.340017 2.875306 -0.024116
v -0.353742 2.899309 -0.086738
v -0.360605 2.911311 -0.086738
v -0.360605 2.911311 -0.101189
v -0.588423 2.619613 -0.101189
v -0.588423 2.619613 -0.086738
v -0.577953 2.612206 -0.086738
v -0.557014 2.597391 -0.024116
v -0.510529 2.564503 0.008063
v -0.501176 2.557886 0.043324
v -0.490706 2.550479 0.043324
v -0.734828 2.248439 -0.101189
v -0.734828 2.248439 -0.086738
v -0.723952 2.241968 -0.086738
v -0.702199 2.229027 -0.024116
v -0.653907 2.200296 0.008063
v -0.644191 2.194515 0.043324
v -0.633315 2.188045 0.043324
v -0.819290 1.672053 -0.101189
v -0.819290 1.672053 -0.086738
v -0.808522 1.664448 -0.086738
v -0.786985 1.649238 -0.024116
v -0.739172 1.615473 0.008063
v -0.729552 1.608679 0.043324
v -0.718784 1.601074 0.043324
v -0.718837 0.000000 0.043324
v -0.729637 0.000000 0.043324
v -0.739285 0.000000 0.008063
v -0.787239 0.000000 -0.024116
v -0.808840 0.000000 -0.086738
v -0.819640 0.000000 -0.086738
v -0.819640 0.000000 -0.101189
v -0.409947 2.997604 -0.101189
v -0.657887 2.668759 -0.101189
v -0.811932 2.294312 -0.101189
v -0.898751 1.728169 -0.101189
v -0.898954 0.000000 -0.101189
v -0.409947 2.997604 0.152630
v -0.657887 2.668759 0.152630
v -0.811932 2.294312 0.152630
v -0.898751 1.728169 0.152630
v -0.898954 0.000000 0.152630
v 0.285116 2.779292 0.152630
v 0.473257 2.538133 0.152630
v 0.615187 2.177260 0.152630
v 0.700836 1.588399 0.152630
v 0.000000 2.987956 0.152630
v 0.700836 0.000000 0.152630
v 0.000000 3.175110 -0.101189
v 0.000000 3.175110 -0.086738
v 0.000000 3.158096 -0.086738
v 0.000000 3.124068 -0.024116
v 0.000000 3.048526 0.008063
v 0.000000 3.033327 0.043324
v 0.000000 3.016313 0.043324
v 0.296553 2.799295 0.043324
v 0.303416 2.811296 0.043324
v 0.309547 2.822018 0.008063
v 0.340017 2.875306 -0.024116
v 0.353742 2.899309 -0.086738
v 0.360605 2.911311 -0.086738
v 0.360605 2.911311 -0.101189
v 0.588423 2.619613 -0.101189
v 0.588423 2.619613 -0.086738
v 0.577953 2.612206 -0.086738
v 0.557014 2.597391 -0.024116
v 0.510529 2.564503 0.008063
v 0.501176 2.557886 0.043324
v 0.490706 2.550479 0.043324
v 0.734828 2.248439 -0.101189
v 0.734828 2.248439 -0.086738
v 0.723952 2.241968 -0.086738
v 0.702199 2.229027 -0.024116
v 0.653907 2.200296 0.008063
v 0.644191 2.194515 0.043324
v 0.633315 2.188045 0.043324
v 0.819290 1.672053 -0.101189
v 0.819290 1.672053 -0.086738
v 0.808522 1.664448 -0.086738
v 0.786985 1.649238 -0.024116
v 0.739172 1.615473 0.008063
v 0.729552 1.608679 0.043324
v 0.718784 1.601074 0.043324
v 0.718837 0.000000 0.043324
v 0.729637 0.000000 0.043324
v 0.739285 0.000000 0.008063
v 0.787239 0.000000 -0.024116
v 0.808840 0.000000 -0.086738
v 0.819640 0.000000 -0.086738
v 0.819640 0.000000 -0.101189
v 0.000000 3.293282 -0.101189
v 0.409947 2.997604 -0.101189
v 0.657887 2.668759 -0.101189
v 0.811932 2.294312 -0.101189
v 0.898751 1.728169 -0.101189
v 0.898954 0.000000 -0.101189
v 0.000000 3.293282 0.152630
v 0.409947 2.997604 0.152630
v 0.657887 2.668759 0.152630
v 0.811932 2.294312 0.152630
v 0.898751 1.728169 0.152630
v 0.898954 0.000000 0.152630
vt 0.402221 0.588197
vt 0.408397 0.704109
vt 0.440518 0.699264
vt 0.434963 0.586778
vt 0.428876 0.795838
vt 0.469080 0.895032
vt 0.496229 0.879040
vt 0.459209 0.784975
vt 0.416433 0.410870
vt 0.446953 0.410816
vt 0.113060 0.408279
vt 0.090032 0.420606
vt 0.078272 0.596245
vt 0.104210 0.589884
vt 0.123268 0.822432
vt 0.096565 0.835526
vt 0.136128 0.980219
vt 0.159245 0.951462
vt 0.154728 0.010878
vt 0.136380 0.008639
vt 0.081686 0.715672
vt 0.106641 0.711319
vt 0.127439 0.821539
vt 0.111042 0.710937
vt 0.131222 0.819658
vt 0.114864 0.710245
vt 0.112434 0.588970
vt 0.135127 0.707867
vt 0.133067 0.587109
vt 0.368959 0.594094
vt 0.375041 0.710987
vt 0.393750 0.706849
vt 0.387525 0.589923
vt 0.415269 0.802088
vt 0.425384 0.797998
vt 0.404724 0.704976
vt 0.108706 0.589964
vt 0.122876 0.406517
vt 0.140790 0.404305
vt 0.384823 0.420392
vt 0.401751 0.413690
vt 0.398636 0.589172
vt 0.118412 0.408697
vt 0.166545 0.946167
vt 0.184249 0.935123
vt 0.150663 0.813475
vt 0.397705 0.812305
vt 0.443942 0.925255
vt 0.457529 0.905730
vt 0.412107 0.412924
vt 0.468095 0.003980
vt 0.496229 0.007416
vt 0.163248 0.950347
vt 0.168577 0.012367
vt 0.184249 0.014114
vt 0.437201 0.000154
vt 0.451687 0.001968
vt 0.466399 0.899363
vt 0.161804 0.011635
vt 0.461132 0.003143
vt 0.074079 0.000154
vt 0.021075 0.415344
vt 0.000154 0.594111
vt 0.003807 0.722823
vt 0.022213 0.850810
vt 0.061289 0.999842
vt 0.529799 0.337212
vt 0.562540 0.338631
vt 0.568096 0.226146
vt 0.535975 0.221301
vt 0.556454 0.129571
vt 0.586787 0.140434
vt 0.623807 0.046368
vt 0.596658 0.030377
vt 0.544010 0.514536
vt 0.574531 0.514590
vt 0.297460 0.591693
vt 0.288612 0.410084
vt 0.262675 0.403723
vt 0.274431 0.579365
vt 0.307673 0.177550
vt 0.343649 0.048533
vt 0.320534 0.019778
vt 0.280971 0.164457
vt 0.339127 0.989123
vt 0.320777 0.991362
vt 0.291044 0.288654
vt 0.266091 0.284302
vt 0.295445 0.289037
vt 0.311843 0.178443
vt 0.299266 0.289729
vt 0.315626 0.180324
vt 0.296835 0.410998
vt 0.317468 0.412859
vt 0.319528 0.292107
vt 0.496538 0.331315
vt 0.515103 0.335486
vt 0.521328 0.218561
vt 0.502619 0.214423
vt 0.542847 0.123321
vt 0.532302 0.220434
vt 0.552962 0.127411
vt 0.293108 0.410004
vt 0.307278 0.593455
vt 0.325193 0.595667
vt 0.512401 0.505013
vt 0.529329 0.511716
vt 0.526215 0.336237
vt 0.302813 0.591274
vt 0.335064 0.186507
vt 0.368650 0.064871
vt 0.350948 0.053827
vt 0.525283 0.113104
vt 0.585107 0.019679
vt 0.571520 0.000154
vt 0.539684 0.512482
vt 0.595673 0.921427
vt 0.623807 0.917990
vt 0.347651 0.049648
vt 0.352976 0.987634
vt 0.368650 0.985887
vt 0.564776 0.925252
vt 0.579263 0.923439
vt 0.593977 0.026046
vt 0.346203 0.988365
vt 0.588709 0.922263
vt 0.205471 0.584625
vt 0.258471 0.999845
vt 0.184558 0.405854
vt 0.206626 0.149172
vt 0.188217 0.277149
vt 0.245703 0.000154
vn 0.9142 -0.3596 -0.1868
vn 0.5780 -0.7899 -0.2050
vn 0.9741 -0.1418 -0.1760
vn 0.0000 0.0000 -1.0000
vn 0.7881 -0.6155 0.0000
vn 0.8643 -0.3407 -0.3701
vn 0.4674 -0.1841 -0.8646
vn 0.7499 -0.5852 -0.3085
vn 0.9302 -0.3669 0.0000
vn 0.9266 -0.1356 -0.3508
vn 0.5202 -0.0760 -0.8506
vn 0.8873 -0.3493 -0.3013
vn 0.9894 -0.1450 0.0000
vn 0.5407 -0.7391 -0.4017
vn 0.2756 -0.3766 -0.8844
vn 0.9486 -0.1383 -0.2847
vn 0.9867 -0.0000 -0.1623
vn 0.5904 -0.8071 0.0000
vn 0.9455 -0.0002 -0.3257
vn 0.5578 -0.0001 -0.8300
vn 0.5577 -0.7622 -0.3286
vn 1.0000 -0.0002 0.0000
vn 0.9646 -0.0001 -0.2636
vn -1.0000 0.0001 0.0000
vn -0.9884 0.1516 0.0000
vn -0.7985 0.6020 0.0000
vn -0.9248 0.3805 0.0000
vn -0.5850 0.8111 0.0000
vn 0.7295 -0.5697 -0.3785
vn 0.7738 -0.6038 -0.1916
vn 0.3883 -0.3031 -0.8702
vn -0.9142 -0.3596 -0.1868
vn -0.5780 -0.7899 -0.2050
vn -0.9741 -0.1418 -0.1760
vn -0.7881 -0.6155 0.0000
vn -0.8643 -0.3407 -0.3701
vn -0.4674 -0.1841 -0.8646
vn -0.7499 -0.5852 -0.3085
vn -0.9302 -0.3669 0.0000
vn -0.9266 -0.1356 -0.3508
vn -0.5202 -0.0760 -0.8506
vn -0.8873 -0.3493 -0.3013
vn -0.9894 -0.1450 0.0000
vn -0.5407 -0.7391 -0.4017
vn -0.2756 -0.3766 -0.8844
vn -0.9486 -0.1383 -0.2847
vn -0.9867 -0.0000 -0.1623
vn -0.5904 -0.8071 0.0000
vn -0.9455 -0.0002 -0.3257
vn -0.5578 -0.0001 -0.8300
vn -0.5577 -0.7622 -0.3286
vn -1.0000 -0.0002 0.0000
vn -0.9646 -0.0001 -0.2636
vn 1.0000 0.0001 0.0000
vn 0.9884 0.1516 0.0000
vn 0.7985 0.6020 0.0000
vn 0.9248 0.3805 0.0000
vn 0.5850 0.8111 0.0000
vn -0.7295 -0.5697 -0.3785
vn -0.7738 -0.6038 -0.1916
vn -0.3883 -0.3031 -0.8702
g Entrance_2_Sphere.001_Mat1
usemtl Mat1
s off
f 26/1/1 19/2/1 2/3/1 3/4/1
f 6/5/2 63/6/2 55/7/2 1/8/2
f 33/9/3 26/1/3 3/4/3 4/10/3
f 27/11/4 44/12/4 43/13/4 20/14/4
f 12/15/4 41/16/4 99/17/4 57/18/4
f 40/19/4 45/20/4 44/12/4 27/11/4
f 20/14/4 43/13/4 42/21/4 13/22/4
f 12/15/5 11/23/5 14/24/5 13/22/5
f 11/23/4 10/25/4 15/26/4 14/24/4
f 22/27/6 15/26/6 16/28/6 23/29/6
f 23/30/7 16/31/7 17/32/7 24/33/7
f 8/34/8 7/35/8 18/36/8 17/32/8
f 7/35/4 6/5/4 19/2/4 18/36/4
f 13/22/9 14/24/9 21/37/9 20/14/9
f 14/24/4 15/26/4 22/27/4 21/37/4
f 29/38/10 22/27/10 23/29/10 30/39/10
f 30/40/11 23/30/11 24/33/11 31/41/11
f 17/32/12 18/36/12 25/42/12 24/33/12
f 18/36/4 19/2/4 26/1/4 25/42/4
f 20/14/13 21/37/13 28/43/13 27/11/13
f 21/37/4 22/27/4 29/38/4 28/43/4
f 10/25/14 59/44/14 60/45/14 9/46/14
f 9/47/15 60/48/15 61/49/15 8/34/15
f 24/33/16 25/42/16 32/50/16 31/41/16
f 25/42/4 26/1/4 33/9/4 32/50/4
f 34/51/17 33/9/17 4/10/17 5/52/17
f 57/18/18 58/53/18 11/23/18 12/15/18
f 58/53/4 59/44/4 10/25/4 11/23/4
f 38/54/19 29/38/19 30/39/19 37/55/19
f 37/56/20 30/40/20 31/41/20 36/57/20
f 61/49/21 62/58/21 7/35/21 8/34/21
f 62/58/4 63/6/4 6/5/4 7/35/4
f 27/11/22 28/43/22 39/59/22 40/19/22
f 28/43/4 29/38/4 38/54/4 39/59/4
f 31/41/23 32/50/23 35/60/23 36/57/23
f 32/50/4 33/9/4 34/51/4 35/60/4
f 45/20/24 50/61/24 49/62/24 44/12/24
f 44/12/25 49/62/25 48/63/25 43/13/25
f 42/21/26 47/64/26 46/65/26 41/16/26
f 43/13/27 48/63/27 47/64/27 42/21/27
f 41/16/28 46/65/28 105/66/28 99/17/28
f 15/26/29 10/25/29 9/46/29 16/28/29
f 13/22/4 42/21/4 41/16/4 12/15/4
f 19/2/30 6/5/30 1/8/30 2/3/30
f 16/31/31 9/47/31 8/34/31 17/32/31
f 84/67/32 53/68/32 52/69/32 77/70/32
f 64/71/33 51/72/33 55/73/33 63/74/33
f 91/75/34 54/76/34 53/68/34 84/67/34
f 85/77/4 78/78/4 102/79/4 103/80/4
f 70/81/4 57/82/4 99/83/4 100/84/4
f 98/85/4 85/77/4 103/80/4 104/86/4
f 78/78/4 71/87/4 101/88/4 102/79/4
f 70/81/35 71/87/35 72/89/35 69/90/35
f 69/90/4 72/89/4 73/91/4 68/92/4
f 80/93/36 81/94/36 74/95/36 73/91/36
f 81/96/37 82/97/37 75/98/37 74/99/37
f 66/100/38 75/98/38 76/101/38 65/102/38
f 65/102/4 76/101/4 77/70/4 64/71/4
f 71/87/39 78/78/39 79/103/39 72/89/39
f 72/89/4 79/103/4 80/93/4 73/91/4
f 87/104/40 88/105/40 81/94/40 80/93/40
f 88/106/41 89/107/41 82/97/41 81/96/41
f 75/98/42 82/97/42 83/108/42 76/101/42
f 76/101/4 83/108/4 84/67/4 77/70/4
f 78/78/43 85/77/43 86/109/43 79/103/43
f 79/103/4 86/109/4 87/104/4 80/93/4
f 68/92/44 67/110/44 60/111/44 59/112/44
f 67/113/45 66/100/45 61/114/45 60/115/45
f 82/97/46 89/107/46 90/116/46 83/108/46
f 83/108/4 90/116/4 91/75/4 84/67/4
f 92/117/47 56/118/47 54/76/47 91/75/47
f 57/82/48 70/81/48 69/90/48 58/119/48
f 58/119/4 69/90/4 68/92/4 59/112/4
f 96/120/49 95/121/49 88/105/49 87/104/49
f 95/122/50 94/123/50 89/107/50 88/106/50
f 61/114/51 66/100/51 65/102/51 62/124/51
f 62/124/4 65/102/4 64/71/4 63/74/4
f 85/77/52 98/85/52 97/125/52 86/109/52
f 86/109/4 97/125/4 96/120/4 87/104/4
f 89/107/53 94/123/53 93/126/53 90/116/53
f 90/116/4 93/126/4 92/117/4 91/75/4
f 104/86/54 103/80/54 109/127/54 110/128/54
f 103/80/55 102/79/55 108/129/55 109/127/55
f 101/88/56 100/84/56 106/130/56 107/131/56
f 102/79/57 101/88/57 107/131/57 108/129/57
f 100/84/58 99/83/58 105/132/58 106/130/58
f 73/91/59 74/95/59 67/110/59 68/92/59
f 71/87/4 70/81/4 100/84/4 101/88/4
f 77/70/60 52/69/60 51/72/60 64/71/60
f 74/99/61 75/98/61 66/100/61 67/113/61
