# Blender v2.82 (sub 7) OBJ File: 'tutorial - levelAssets.blend'
# www.blender.org
mtllib buildingBaseboard.mtl
o Support_Baseboard_Cube.044
v 2.339866 0.267143 -0.129968
v 2.295893 0.311891 -0.085995
v 2.307886 0.293992 -0.097987
v 2.325635 0.286519 -0.115737
v 2.329206 0.278330 -0.119308
v 2.333204 0.278330 -0.123305
v -2.339928 0.267143 -0.129966
v -2.333266 0.278330 -0.123304
v -2.329268 0.278330 -0.119306
v -2.325697 0.286519 -0.115735
v -2.307948 0.293992 -0.097986
v -2.295955 0.311891 -0.085993
v 2.303243 0.214593 -0.093344
v -2.303305 0.214593 -0.093343
v 2.295893 0.311891 0.414192
v 2.307886 0.293992 0.414192
v 2.325635 0.286519 0.414192
v 2.329206 0.278330 0.414192
v 2.333204 0.278330 0.414192
v 2.339866 0.267143 0.414192
v -2.339928 0.267143 0.414194
v -2.333266 0.278330 0.414194
v -2.329268 0.278330 0.414194
v -2.325697 0.286519 0.414194
v -2.307948 0.293992 0.414194
v -2.295955 0.311891 0.414194
v 2.303243 0.214593 0.414192
v -2.303305 0.214593 0.414194
v 2.339866 -0.267143 -0.129968
v 2.295893 -0.311891 -0.085995
v 2.307886 -0.293992 -0.097987
v 2.325635 -0.286519 -0.115737
v 2.329206 -0.278330 -0.119308
v 2.333204 -0.278330 -0.123305
v -2.339928 -0.267143 -0.129966
v -2.333266 -0.278330 -0.123304
v -2.329268 -0.278330 -0.119306
v -2.325697 -0.286519 -0.115735
v -2.307948 -0.293992 -0.097986
v -2.295955 -0.311891 -0.085993
v 2.303243 -0.214593 -0.093344
v -2.303305 -0.214593 -0.093343
v 2.295893 -0.311891 0.414192
v 2.307886 -0.293992 0.414192
v 2.325635 -0.286519 0.414192
v 2.329206 -0.278330 0.414192
v 2.333204 -0.278330 0.414192
v 2.339866 -0.267143 0.414192
v -2.339928 -0.267143 0.414194
v -2.333266 -0.278330 0.414194
v -2.329268 -0.278330 0.414194
v -2.325697 -0.286519 0.414194
v -2.307948 -0.293992 0.414194
v -2.295955 -0.311891 0.414194
v 2.303243 -0.214593 0.414192
v -2.303305 -0.214593 0.414194
vt 0.141846 0.020353
vt 0.213374 0.020293
vt 0.218543 0.029316
vt 0.141853 0.029380
vt 0.219877 0.696922
vt 0.142404 0.696973
vt 0.142403 0.695119
vt 0.218927 0.695069
vt 0.259282 0.006092
vt 0.259347 0.691998
vt 0.247583 0.691527
vt 0.247323 0.018053
vt 0.235909 0.691120
vt 0.235581 0.022753
vt 0.217079 0.692441
vt 0.142391 0.692503
vt 0.142388 0.689789
vt 0.214575 0.689729
vt 0.142386 0.686752
vt 0.212882 0.686693
vt 0.271424 0.693088
vt 0.271449 0.000091
vt 0.283425 0.005464
vt 0.283425 0.686226
vt 0.214669 0.706045
vt 0.142410 0.706092
vt 0.212344 0.039523
vt 0.141848 0.039582
vt 0.214031 0.036485
vt 0.141845 0.036545
vt 0.141843 0.033831
vt 0.216531 0.033768
vt 0.217605 0.031152
vt 0.141855 0.031215
vt 0.217601 0.693744
vt 0.142392 0.693807
vt 0.217034 0.032464
vt 0.141843 0.032527
vt 0.224288 0.688480
vt 0.223824 0.033313
vt 0.000656 0.706262
vt 0.000650 0.697142
vt 0.078131 0.697092
vt 0.072922 0.706216
vt 0.076799 0.029411
vt 0.075862 0.031247
vt 0.000103 0.031310
vt 0.000101 0.029475
vt 0.117648 0.692172
vt 0.105687 0.691481
vt 0.105429 0.018032
vt 0.117584 0.006270
vt 0.093943 0.690868
vt 0.093614 0.022548
vt 0.074787 0.033864
vt 0.072288 0.036581
vt 0.000093 0.036641
vt 0.000091 0.033926
vt 0.070600 0.039619
vt 0.000096 0.039678
vt 0.129661 0.000091
vt 0.141661 0.005554
vt 0.141661 0.686231
vt 0.129635 0.693048
vt 0.000094 0.020447
vt 0.071630 0.020388
vt 0.000631 0.686920
vt 0.071135 0.686862
vt 0.072828 0.689897
vt 0.075332 0.692610
vt 0.000636 0.692672
vt 0.000634 0.689957
vt 0.077181 0.695239
vt 0.000648 0.695288
vt 0.075290 0.032560
vt 0.000091 0.032622
vt 0.075855 0.693914
vt 0.000638 0.693976
vt 0.082462 0.688451
vt 0.082000 0.033263
vt 0.283607 0.090358
vt 0.359939 0.090358
vt 0.359939 0.909643
vt 0.283607 0.909643
vt 0.359939 0.999909
vt 0.283607 0.999909
vt 0.283607 0.000091
vt 0.359939 0.000091
vn 0.8204 -0.5718 0.0000
vn -0.8592 0.5117 0.0000
vn 0.0000 1.0000 -0.0000
vn -0.0000 0.3997 -0.9166
vn -0.3880 0.9216 0.0000
vn -0.8308 0.5566 0.0000
vn -0.0000 -0.5718 -0.8204
vn -0.8204 -0.5718 0.0000
vn 0.3880 0.9216 0.0000
vn 0.8592 0.5117 0.0000
vn -0.9166 0.3997 0.0000
vn -0.0000 0.5117 -0.8592
vn 0.9166 0.3998 0.0000
vn -0.0000 0.9216 -0.3880
vn -0.0000 0.5566 -0.8308
vn 0.8308 0.5566 0.0000
vn 0.8204 0.5718 0.0000
vn -0.8592 -0.5117 0.0000
vn 0.0000 -1.0000 -0.0000
vn -0.0000 -0.3997 -0.9166
vn -0.3880 -0.9216 0.0000
vn -0.8308 -0.5566 0.0000
vn -0.0000 0.5718 -0.8204
vn -0.8204 0.5718 0.0000
vn 0.3880 -0.9216 0.0000
vn 0.8592 -0.5117 0.0000
vn -0.9166 -0.3997 0.0000
vn -0.0000 -0.5117 -0.8592
vn 0.9166 -0.3998 0.0000
vn -0.0000 -0.9216 -0.3880
vn -0.0000 -0.5566 -0.8308
vn 0.8308 -0.5566 0.0000
vn -0.0000 0.0000 -1.0000
vn 1.0000 0.0000 0.0000
vn -1.0000 0.0000 0.0000
g Support_Baseboard_Cube.044_Mat1
usemtl Mat1
s off
f 27/1/1 13/2/1 1/3/1 20/4/1
f 7/5/2 21/6/2 22/7/2 8/8/2
f 6/9/3 8/10/3 9/11/3 5/12/3
f 5/12/4 9/11/4 10/13/4 4/14/4
f 10/15/5 24/16/5 25/17/5 11/18/5
f 11/18/6 25/17/6 26/19/6 12/20/6
f 7/21/7 1/22/7 13/23/7 14/24/7
f 21/6/8 7/5/8 14/25/8 28/26/8
f 2/27/3 12/20/3 26/19/3 15/28/3
f 3/29/9 16/30/9 17/31/9 4/32/9
f 6/33/10 19/34/10 20/4/10 1/3/10
f 9/35/11 23/36/11 24/16/11 10/15/11
f 8/8/3 22/7/3 23/36/3 9/35/3
f 7/21/12 8/10/12 6/9/12 1/22/12
f 5/37/3 18/38/3 19/34/3 6/33/3
f 4/32/13 17/31/13 18/38/13 5/37/13
f 10/13/14 11/39/14 3/40/14 4/14/14
f 11/39/15 12/20/15 2/27/15 3/40/15
f 2/27/16 15/28/16 16/30/16 3/29/16
f 55/41/17 48/42/17 29/43/17 41/44/17
f 35/45/18 36/46/18 50/47/18 49/48/18
f 34/49/19 33/50/19 37/51/19 36/52/19
f 33/50/20 32/53/20 38/54/20 37/51/20
f 38/55/21 39/56/21 53/57/21 52/58/21
f 39/56/22 40/59/22 54/60/22 53/57/22
f 35/61/23 42/62/23 41/63/23 29/64/23
f 49/48/24 56/65/24 42/66/24 35/45/24
f 43/67/19 54/60/19 40/59/19 30/68/19
f 31/69/25 32/70/25 45/71/25 44/72/25
f 34/73/26 29/43/26 48/42/26 47/74/26
f 37/75/27 38/55/27 52/58/27 51/76/27
f 36/46/19 37/75/19 51/76/19 50/47/19
f 35/61/28 29/64/28 34/49/28 36/52/28
f 33/77/19 34/73/19 47/74/19 46/78/19
f 32/70/29 33/77/29 46/78/29 45/71/29
f 38/54/30 32/53/30 31/79/30 39/80/30
f 39/80/31 31/79/31 30/68/31 40/59/31
f 30/68/32 31/69/32 44/72/32 43/67/32
g Support_Baseboard_Cube.044_Mat2
usemtl Mat2
f 42/81/33 14/82/33 13/83/33 41/84/33
f 27/85/34 55/86/34 41/84/34 13/83/34
f 56/87/35 28/88/35 14/82/35 42/81/35
