# Blender v2.82 (sub 7) OBJ File: 'tutorial - levelAssets.blend'
# www.blender.org
mtllib buildingEntrance.mtl
o Entrance_Cube.042
v -0.832004 -0.000001 -0.131680
v -0.672714 -0.000001 -0.009306
v -0.705861 -0.000001 -0.043289
v -0.732673 -0.000001 -0.054780
v -0.754918 -0.000001 -0.067891
v -0.764788 -0.000001 -0.094850
v -0.775837 -0.000001 -0.094850
v -0.782466 -0.000001 -0.108109
v -0.832004 2.394243 -0.131680
v -0.672714 2.234954 -0.009306
v -0.705861 2.268100 -0.043289
v -0.732673 2.294912 -0.054780
v -0.754918 2.317157 -0.067891
v -0.764788 2.327028 -0.094850
v -0.775837 2.338077 -0.094850
v -0.782466 2.344706 -0.108109
v 0.832011 -0.000001 -0.131680
v 0.672722 -0.000001 -0.009306
v 0.705869 -0.000001 -0.043289
v 0.732681 -0.000001 -0.054780
v 0.754926 -0.000001 -0.067891
v 0.764797 -0.000001 -0.094850
v 0.775845 -0.000001 -0.094850
v 0.782475 -0.000001 -0.108109
v 0.832011 2.394243 -0.131680
v 0.782475 2.344706 -0.108109
v 0.775845 2.338077 -0.094850
v 0.764797 2.327028 -0.094850
v 0.754926 2.317157 -0.067891
v 0.732681 2.294912 -0.054780
v 0.705869 2.268100 -0.043289
v 0.672722 2.234954 -0.009306
v -0.672714 -0.000001 0.368218
v -0.672714 2.234954 0.368218
v 0.672722 -0.000001 0.368218
v 0.672722 2.234954 0.368218
v -0.875327 -0.000001 0.368218
v -0.875327 2.456575 0.368218
v 0.875331 2.456575 0.368218
v 0.875331 -0.000001 0.368218
v -0.875327 -0.000001 -0.131680
v -0.875327 2.456575 -0.131680
v 0.875331 2.456575 -0.131680
v 0.875331 -0.000001 -0.131680
vt 0.565922 0.671169
vt 0.552961 0.671169
vt 0.552961 0.051908
vt 0.565922 0.060957
vt 0.482976 0.017151
vt 0.482977 0.670731
vt 0.471151 0.670731
vt 0.471149 0.000135
vt 0.542153 0.671120
vt 0.542153 0.044543
vt 0.531217 0.671052
vt 0.531217 0.038413
vt 0.520175 0.670996
vt 0.520176 0.035670
vt 0.509089 0.670855
vt 0.509088 0.032565
vt 0.497951 0.670731
vt 0.497949 0.030672
vt 0.787511 0.446174
vt 0.774311 0.436963
vt 0.774220 0.062931
vt 0.787416 0.053712
vt 0.841402 0.012346
vt 0.841402 0.481342
vt 0.825940 0.467381
vt 0.825940 0.026308
vt 0.818301 0.465566
vt 0.818274 0.029737
vt 0.810825 0.462550
vt 0.810722 0.037289
vt 0.802842 0.459808
vt 0.802742 0.040035
vt 0.795622 0.453626
vt 0.795524 0.046256
vt 0.220320 0.000135
vt 0.233064 0.000135
vt 0.233064 0.600143
vt 0.220320 0.609041
vt 0.150207 0.661843
vt 0.150536 0.000438
vt 0.165691 0.000445
vt 0.165367 0.648168
vt 0.176909 0.000365
vt 0.176642 0.643132
vt 0.187933 0.000278
vt 0.187812 0.631972
vt 0.198894 0.000232
vt 0.198791 0.628199
vt 0.209692 0.000178
vt 0.209647 0.618850
vt 0.334416 0.000135
vt 0.334416 0.600143
vt 0.669359 0.436988
vt 0.669269 0.062956
vt 0.668998 0.060957
vt 0.668998 0.671169
vt 0.858970 0.493552
vt 0.858970 0.000135
vt 0.999865 0.000135
vt 0.999865 0.493552
vt 0.334689 0.670732
vt 0.334687 0.000136
vt 0.138568 0.000432
vt 0.138231 0.679057
vt 0.000135 0.678988
vt 0.000472 0.000363
vn 0.7159 0.0000 -0.6982
vn 0.0000 0.0000 -1.0000
vn 0.3939 0.0000 -0.9191
vn 0.5078 0.0000 -0.8615
vn 0.9390 0.0000 -0.3438
vn 0.8944 0.0000 -0.4472
vn 0.4297 0.0000 -0.9030
vn 0.0000 -0.7159 -0.6982
vn 0.0000 -0.4297 -0.9030
vn 0.0000 -0.8944 -0.4472
vn 0.0000 -0.9390 -0.3438
vn 0.0000 -0.5078 -0.8615
vn 0.0000 -0.3939 -0.9191
vn -0.7159 0.0000 -0.6982
vn -0.4297 0.0000 -0.9030
vn -0.8944 0.0000 -0.4472
vn -0.9390 0.0000 -0.3438
vn -0.5078 0.0000 -0.8615
vn -0.3939 0.0000 -0.9191
vn -1.0000 0.0000 0.0000
vn 0.0000 -1.0000 0.0000
vn 1.0000 0.0000 0.0000
vn 0.0000 1.0000 0.0000
g Entrance_Cube.042_Mat1
usemtl Mat1
s off
f 2/1/1 3/2/1 11/3/1 10/4/1
f 9/5/2 1/6/2 41/7/2 42/8/2
f 11/3/3 3/2/3 4/9/3 12/10/3
f 12/10/4 4/9/4 5/11/4 13/12/4
f 13/12/5 5/11/5 6/13/5 14/14/5
f 14/14/2 6/13/2 7/15/2 15/16/2
f 15/16/6 7/15/6 8/17/6 16/18/6
f 16/18/7 8/17/7 1/6/7 9/5/7
f 31/19/8 32/20/8 10/21/8 11/22/8
f 9/23/9 25/24/9 26/25/9 16/26/9
f 16/26/10 26/25/10 27/27/10 15/28/10
f 15/28/2 27/27/2 28/29/2 14/30/2
f 14/30/11 28/29/11 29/31/11 13/32/11
f 13/32/12 29/31/12 30/33/12 12/34/12
f 12/34/13 30/33/13 31/19/13 11/22/13
f 19/35/14 18/36/14 32/37/14 31/38/14
f 25/39/15 17/40/15 24/41/15 26/42/15
f 26/42/16 24/41/16 23/43/16 27/44/16
f 27/44/2 23/43/2 22/45/2 28/46/2
f 28/46/17 22/45/17 21/47/17 29/48/17
f 29/48/18 21/47/18 20/49/18 30/50/18
f 30/50/19 20/49/19 19/35/19 31/38/19
f 32/37/20 18/36/20 35/51/20 36/52/20
f 10/21/21 32/20/21 36/53/21 34/54/21
f 2/1/22 10/4/22 34/55/22 33/56/22
f 43/57/23 42/58/23 38/59/23 39/60/23
f 37/61/20 38/62/20 42/8/20 41/7/20
f 44/63/22 43/64/22 39/65/22 40/66/22
f 17/40/2 25/39/2 43/64/2 44/63/2
f 25/24/2 9/23/2 42/58/2 43/57/2
