# Blender v2.82 (sub 7) OBJ File: 'tutorial - levelAssets.blend'
# www.blender.org
mtllib coloumnTall.mtl
o Column_-_Long_Cylinder.021
v -0.000081 -0.000000 -0.696482
v 0.180180 -0.000000 -0.672750
v 0.348158 -0.000000 -0.603171
v 0.492404 -0.000000 -0.492487
v 0.603089 -0.000000 -0.348240
v 0.672668 -0.000000 -0.180261
v 0.696400 -0.000000 -0.000001
v 0.672667 -0.000000 0.180263
v 0.603089 -0.000000 0.348241
v 0.492404 -0.000000 0.492488
v 0.348160 -0.000000 0.603170
v 0.180179 -0.000000 0.672750
v -0.000081 -0.000000 0.696482
v -0.180345 -0.000000 0.672750
v -0.348322 -0.000000 0.603172
v -0.492569 -0.000000 0.492488
v -0.603253 -0.000000 0.348241
v -0.672833 -0.000000 0.180261
v -0.696564 -0.000000 0.000001
v -0.672832 -0.000000 -0.180262
v -0.603253 -0.000000 -0.348241
v -0.492570 -0.000000 -0.492486
v -0.348323 -0.000000 -0.603171
v -0.180347 -0.000000 -0.672749
v -0.000081 6.770457 -0.696482
v 0.180180 6.770457 -0.672750
v 0.348158 6.770457 -0.603171
v 0.492404 6.770457 -0.492487
v 0.603089 6.770457 -0.348240
v 0.672668 6.770457 -0.180261
v 0.696400 6.770457 -0.000001
v 0.672667 6.770457 0.180263
v 0.603089 6.770457 0.348241
v 0.492404 6.770457 0.492488
v 0.348160 6.770457 0.603170
v 0.180179 6.770457 0.672750
v -0.000081 6.770457 0.696482
v -0.180345 6.770457 0.672750
v -0.348322 6.770457 0.603172
v -0.492569 6.770457 0.492488
v -0.603253 6.770457 0.348241
v -0.672833 6.770457 0.180261
v -0.696564 6.770457 0.000001
v -0.672832 6.770457 -0.180262
v -0.603253 6.770457 -0.348241
v -0.492570 6.770457 -0.492486
v -0.348323 6.770457 -0.603171
v -0.180347 6.770457 -0.672749
v 0.426424 6.770457 -0.438614
v 0.220694 6.770457 -0.495425
v -0.000080 6.770457 -0.514802
v -0.220859 6.770457 -0.495425
v -0.426587 6.770457 -0.438615
v 0.475625 6.770457 -0.230661
v 0.246161 6.770457 -0.262343
v -0.000080 6.770457 -0.273149
v -0.246327 6.770457 -0.262343
v -0.475788 6.770457 -0.230661
v 0.492406 6.770457 -0.000002
v 0.254847 6.770457 -0.000001
v -0.000080 6.770457 -0.000001
v -0.255013 6.770457 -0.000000
v -0.492569 6.770457 0.000000
v 0.475625 6.770457 0.230661
v 0.246159 6.770457 0.262344
v -0.000081 6.770457 0.273150
v -0.246327 6.770457 0.262343
v -0.475788 6.770457 0.230661
v 0.426426 6.770457 0.438612
v 0.220692 6.770457 0.495425
v -0.000081 6.770457 0.514802
v -0.220859 6.770457 0.495425
v -0.426588 6.770457 0.438614
v 0.426424 -0.000000 -0.438614
v 0.220694 -0.000000 -0.495425
v -0.000080 -0.000000 -0.514802
v -0.220859 -0.000000 -0.495425
v -0.426587 -0.000000 -0.438615
v 0.475625 -0.000000 -0.230661
v 0.246161 -0.000000 -0.262343
v -0.000080 -0.000000 -0.273149
v -0.246327 -0.000000 -0.262343
v -0.475787 -0.000000 -0.230661
v 0.492406 -0.000000 -0.000002
v 0.254847 -0.000000 -0.000001
v -0.000080 -0.000000 -0.000001
v -0.255013 -0.000000 -0.000000
v -0.492569 -0.000000 0.000000
v 0.475625 -0.000000 0.230661
v 0.246159 -0.000000 0.262344
v -0.000081 -0.000000 0.273150
v -0.246327 -0.000000 0.262343
v -0.475788 -0.000000 0.230661
v 0.426426 -0.000000 0.438612
v 0.220692 -0.000000 0.495425
v -0.000081 -0.000000 0.514802
v -0.220859 -0.000000 0.495425
v -0.426588 -0.000000 0.438614
vt 0.999879 0.483387
vt 0.999879 0.510235
vt 0.000122 0.510230
vt 0.000122 0.483382
vt 0.999879 0.188058
vt 0.999879 0.214906
vt 0.000123 0.214909
vt 0.000122 0.188062
vt 0.999878 0.026969
vt 0.999878 0.053817
vt 0.000121 0.053826
vt 0.000121 0.026978
vt 0.999878 0.537084
vt 0.000122 0.537077
vt 0.999879 0.349147
vt 0.999879 0.375995
vt 0.000123 0.375993
vt 0.000123 0.349146
vt 0.999879 0.241754
vt 0.000123 0.241757
vt 0.999878 0.080665
vt 0.000122 0.080673
vt 0.999878 0.563932
vt 0.000122 0.563924
vt 0.999879 0.402843
vt 0.000123 0.402841
vt 0.999879 0.268602
vt 0.000123 0.268604
vt 0.999878 0.107514
vt 0.000122 0.107520
vt 0.999878 0.590780
vt 0.000122 0.590772
vt 0.999879 0.429691
vt 0.000123 0.429688
vt 0.999879 0.295450
vt 0.000123 0.295451
vt 0.999878 0.134362
vt 0.000122 0.134368
vt 0.999878 0.617628
vt 0.000121 0.617619
vt 0.999879 0.322298
vt 0.000123 0.322299
vt 0.999879 0.456539
vt 0.000122 0.456535
vt 0.999879 0.161210
vt 0.000122 0.161215
vt 0.999878 0.644476
vt 0.000121 0.644466
vt 0.999877 0.000121
vt 0.000121 0.000131
vt 0.243650 0.828276
vt 0.270522 0.829654
vt 0.292835 0.848649
vt 0.266901 0.841700
vt 0.301672 0.824615
vt 0.319683 0.848649
vt 0.334088 0.813871
vt 0.345615 0.841700
vt 0.364607 0.798547
vt 0.368866 0.828276
vt 0.390197 0.780084
vt 0.387851 0.809292
vt 0.408223 0.760108
vt 0.401275 0.786041
vt 0.224666 0.809292
vt 0.251147 0.804798
vt 0.284384 0.795102
vt 0.320664 0.781462
vt 0.355963 0.765452
vt 0.386321 0.748807
vt 0.408223 0.733259
vt 0.211242 0.786041
vt 0.236028 0.775775
vt 0.268995 0.762119
vt 0.306258 0.746684
vt 0.343522 0.731249
vt 0.376489 0.717593
vt 0.401275 0.707327
vt 0.204293 0.760107
vt 0.226195 0.744560
vt 0.256554 0.727915
vt 0.291853 0.711905
vt 0.328133 0.698265
vt 0.361370 0.688569
vt 0.387851 0.684076
vt 0.204293 0.733260
vt 0.222320 0.713284
vt 0.247909 0.694821
vt 0.278429 0.679497
vt 0.310844 0.668752
vt 0.341994 0.663713
vt 0.368867 0.665091
vt 0.211242 0.707326
vt 0.224666 0.684076
vt 0.243650 0.665091
vt 0.266901 0.651667
vt 0.292834 0.644719
vt 0.319682 0.644719
vt 0.345616 0.651667
vt 0.007070 0.786041
vt 0.000121 0.760108
vt 0.019115 0.782420
vt 0.020494 0.809292
vt 0.000121 0.733259
vt 0.024154 0.751270
vt 0.007070 0.707327
vt 0.034899 0.718854
vt 0.020494 0.684075
vt 0.050223 0.688335
vt 0.039478 0.665091
vt 0.068686 0.662745
vt 0.062729 0.651667
vt 0.088662 0.644719
vt 0.043971 0.801795
vt 0.039478 0.828276
vt 0.053668 0.768559
vt 0.067308 0.732278
vt 0.083318 0.696979
vt 0.099963 0.666620
vt 0.115510 0.644719
vt 0.072995 0.816914
vt 0.062729 0.841700
vt 0.086651 0.783947
vt 0.102086 0.746684
vt 0.117521 0.709420
vt 0.131177 0.676453
vt 0.141443 0.651667
vt 0.104210 0.826747
vt 0.088662 0.848649
vt 0.120855 0.796388
vt 0.136865 0.761089
vt 0.150504 0.724809
vt 0.160201 0.691572
vt 0.164694 0.665091
vt 0.135486 0.830622
vt 0.115510 0.848649
vt 0.153949 0.805033
vt 0.169273 0.774513
vt 0.180018 0.742098
vt 0.185057 0.710948
vt 0.183678 0.684075
vt 0.164694 0.828276
vt 0.141443 0.841700
vt 0.183679 0.809292
vt 0.197103 0.786041
vt 0.204051 0.760108
vt 0.204051 0.733260
vt 0.197102 0.707326
vn -1.0000 0.0000 0.0000
vn -0.9659 0.0000 0.2588
vn 0.9659 0.0000 -0.2588
vn 0.8660 0.0000 -0.5000
vn 0.2588 0.0000 0.9659
vn 0.5000 0.0000 0.8660
vn -0.8660 0.0000 0.5000
vn -0.2588 -0.0000 -0.9659
vn -0.5000 -0.0000 -0.8660
vn 0.7071 0.0000 -0.7071
vn 0.7071 0.0000 0.7071
vn -0.7071 -0.0000 0.7071
vn -0.7071 0.0000 -0.7071
vn 0.5000 0.0000 -0.8660
vn 0.8660 0.0000 0.5000
vn -0.5000 -0.0000 0.8660
vn -0.8660 0.0000 -0.5000
vn 0.2588 0.0000 -0.9659
vn 0.9659 0.0000 0.2588
vn -0.2588 -0.0000 0.9659
vn -0.0000 0.0000 -1.0000
vn -0.9659 0.0000 -0.2588
vn 1.0000 0.0000 -0.0000
vn 0.0000 0.0000 1.0000
vn 0.0000 1.0000 0.0000
vn 0.0000 -1.0000 0.0000
g Column_-_Long_Cylinder.021_Mat1
usemtl Mat1
s 1
f 19/1/1 18/2/2 42/3/2 43/4/1
f 6/5/3 5/6/4 29/7/4 30/8/3
f 12/9/5 11/10/6 35/11/6 36/12/5
f 18/2/2 17/13/7 41/14/7 42/3/2
f 24/15/8 23/16/9 47/17/9 48/18/8
f 5/6/4 4/19/10 28/20/10 29/7/4
f 11/10/6 10/21/11 34/22/11 35/11/6
f 17/13/7 16/23/12 40/24/12 41/14/7
f 23/16/9 22/25/13 46/26/13 47/17/9
f 4/19/10 3/27/14 27/28/14 28/20/10
f 10/21/11 9/29/15 33/30/15 34/22/11
f 16/23/12 15/31/16 39/32/16 40/24/12
f 22/25/13 21/33/17 45/34/17 46/26/13
f 3/27/14 2/35/18 26/36/18 27/28/14
f 9/29/15 8/37/19 32/38/19 33/30/15
f 15/31/16 14/39/20 38/40/20 39/32/16
f 1/41/21 24/15/8 48/18/8 25/42/21
f 21/33/17 20/43/22 44/44/22 45/34/17
f 2/35/18 1/41/21 25/42/21 26/36/18
f 8/37/19 7/45/23 31/46/23 32/38/19
f 14/39/20 13/47/24 37/48/24 38/40/20
f 20/43/22 19/1/1 43/4/1 44/44/22
f 7/45/23 6/5/3 30/8/3 31/46/23
f 13/49/24 12/9/5 36/12/5 37/50/24
g Column_-_Long_Cylinder.021_Mat2
usemtl Mat2
f 27/51/25 49/52/25 29/53/25 28/54/25
f 49/52/25 54/55/25 30/56/25 29/53/25
f 54/55/25 59/57/25 31/58/25 30/56/25
f 59/57/25 64/59/25 32/60/25 31/58/25
f 64/59/25 69/61/25 33/62/25 32/60/25
f 69/61/25 35/63/25 34/64/25 33/62/25
f 26/65/25 50/66/25 49/52/25 27/51/25
f 50/66/25 55/67/25 54/55/25 49/52/25
f 55/67/25 60/68/25 59/57/25 54/55/25
f 60/68/25 65/69/25 64/59/25 59/57/25
f 65/69/25 70/70/25 69/61/25 64/59/25
f 70/70/25 36/71/25 35/63/25 69/61/25
f 25/72/25 51/73/25 50/66/25 26/65/25
f 51/73/25 56/74/25 55/67/25 50/66/25
f 56/74/25 61/75/25 60/68/25 55/67/25
f 61/75/25 66/76/25 65/69/25 60/68/25
f 66/76/25 71/77/25 70/70/25 65/69/25
f 71/77/25 37/78/25 36/71/25 70/70/25
f 48/79/25 52/80/25 51/73/25 25/72/25
f 52/80/25 57/81/25 56/74/25 51/73/25
f 57/81/25 62/82/25 61/75/25 56/74/25
f 62/82/25 67/83/25 66/76/25 61/75/25
f 67/83/25 72/84/25 71/77/25 66/76/25
f 72/84/25 38/85/25 37/78/25 71/77/25
f 47/86/25 53/87/25 52/80/25 48/79/25
f 53/87/25 58/88/25 57/81/25 52/80/25
f 58/88/25 63/89/25 62/82/25 57/81/25
f 63/89/25 68/90/25 67/83/25 62/82/25
f 68/90/25 73/91/25 72/84/25 67/83/25
f 73/91/25 39/92/25 38/85/25 72/84/25
f 46/93/25 45/94/25 53/87/25 47/86/25
f 45/94/25 44/95/25 58/88/25 53/87/25
f 44/95/25 43/96/25 63/89/25 58/88/25
f 43/96/25 42/97/25 68/90/25 63/89/25
f 42/97/25 41/98/25 73/91/25 68/90/25
f 41/98/25 40/99/25 39/92/25 73/91/25
f 4/100/26 5/101/26 74/102/26 3/103/26
f 5/101/26 6/104/26 79/105/26 74/102/26
f 6/104/26 7/106/26 84/107/26 79/105/26
f 7/106/26 8/108/26 89/109/26 84/107/26
f 8/108/26 9/110/26 94/111/26 89/109/26
f 9/110/26 10/112/26 11/113/26 94/111/26
f 3/103/26 74/102/26 75/114/26 2/115/26
f 74/102/26 79/105/26 80/116/26 75/114/26
f 79/105/26 84/107/26 85/117/26 80/116/26
f 84/107/26 89/109/26 90/118/26 85/117/26
f 89/109/26 94/111/26 95/119/26 90/118/26
f 94/111/26 11/113/26 12/120/26 95/119/26
f 2/115/26 75/114/26 76/121/26 1/122/26
f 75/114/26 80/116/26 81/123/26 76/121/26
f 80/116/26 85/117/26 86/124/26 81/123/26
f 85/117/26 90/118/26 91/125/26 86/124/26
f 90/118/26 95/119/26 96/126/26 91/125/26
f 95/119/26 12/120/26 13/127/26 96/126/26
f 1/122/26 76/121/26 77/128/26 24/129/26
f 76/121/26 81/123/26 82/130/26 77/128/26
f 81/123/26 86/124/26 87/131/26 82/130/26
f 86/124/26 91/125/26 92/132/26 87/131/26
f 91/125/26 96/126/26 97/133/26 92/132/26
f 96/126/26 13/127/26 14/134/26 97/133/26
f 24/129/26 77/128/26 78/135/26 23/136/26
f 77/128/26 82/130/26 83/137/26 78/135/26
f 82/130/26 87/131/26 88/138/26 83/137/26
f 87/131/26 92/132/26 93/139/26 88/138/26
f 92/132/26 97/133/26 98/140/26 93/139/26
f 97/133/26 14/134/26 15/141/26 98/140/26
f 23/136/26 78/135/26 21/142/26 22/143/26
f 78/135/26 83/137/26 20/144/26 21/142/26
f 83/137/26 88/138/26 19/145/26 20/144/26
f 88/138/26 93/139/26 18/146/26 19/145/26
f 93/139/26 98/140/26 17/147/26 18/146/26
f 98/140/26 15/141/26 16/148/26 17/147/26
