# Blender v2.82 (sub 7) OBJ File: 'tutorial - levelAssets.blend'
# www.blender.org
mtllib platformLarge.mtl
o Building_1_-_Entablature_Suppot_Cube.046
v -8.660754 -1.000000 14.786790
v -8.660754 1.000004 14.786790
v -8.660754 -1.000000 -14.786790
v -8.660754 1.000004 -14.786790
v 8.660754 -1.000000 14.786790
v 8.660754 1.000004 14.786790
v 8.660754 -1.000000 -14.786790
v 8.660754 1.000004 -14.786790
v -8.660754 -0.736142 14.786790
v -8.660754 0.736139 14.786790
v -8.660754 0.736139 -14.786790
v -8.660754 -0.736142 -14.786790
v 8.660754 0.736139 -14.786790
v 8.660754 -0.736142 -14.786790
v 8.660754 0.736139 14.786790
v 8.660754 -0.736142 14.786790
v -8.538401 -0.634590 14.577891
v -8.538401 0.634588 14.577891
v -8.538401 0.634588 -14.577891
v -8.538401 -0.634590 -14.577891
v 8.538401 0.634588 -14.577891
v 8.538401 -0.634590 -14.577891
v 8.538401 0.634588 14.577891
v 8.538401 -0.634590 14.577891
vt 0.010852 0.012622
vt 0.021641 0.012717
vt 0.021469 0.630913
vt 0.010681 0.630818
vt 0.021453 0.637233
vt 0.383552 0.631014
vt 0.383536 0.637334
vt 0.394341 0.631109
vt 0.383724 0.012818
vt 0.394513 0.012913
vt 0.383740 0.006498
vt 0.021657 0.006397
vt 0.788745 0.631013
vt 0.426662 0.630913
vt 0.426834 0.012717
vt 0.788917 0.012818
vt 0.426849 0.006397
vt 0.788932 0.006498
vt 0.024189 0.000135
vt 0.380436 0.000222
vt 0.415873 0.630818
vt 0.416045 0.012622
vt 0.405058 0.017128
vt 0.405058 0.617037
vt 0.788729 0.637333
vt 0.426646 0.637233
vt 0.381004 0.643596
vt 0.024757 0.643509
vt 0.799705 0.012913
vt 0.799533 0.631108
vt 0.000136 0.626603
vt 0.000135 0.026694
vt 0.838236 0.630593
vt 0.865681 0.630593
vt 0.865681 0.999865
vt 0.838236 0.999865
vt 0.838237 0.000135
vt 0.865681 0.000135
vt 0.810521 0.630593
vt 0.837966 0.630593
vt 0.837966 0.999865
vt 0.810521 0.999865
vt 0.810521 0.000135
vt 0.837966 0.000135
vt 0.810250 0.017128
vt 0.810250 0.617037
vt 0.786197 0.643595
vt 0.429950 0.643509
vt 0.405328 0.626602
vt 0.405328 0.026694
vt 0.429382 0.000135
vt 0.785629 0.000222
vn -1.0000 0.0000 0.0000
vn 0.0000 0.0000 -1.0000
vn 1.0000 0.0000 0.0000
vn 0.0000 0.0000 1.0000
vn 0.0000 -1.0000 0.0000
vn 0.0000 1.0000 0.0000
vn 0.0000 -0.8994 0.4372
vn 0.6387 -0.7695 0.0000
vn 0.0000 -0.8994 -0.4372
vn -0.6387 -0.7695 0.0000
vn -0.6387 0.7695 0.0000
vn 0.0000 0.8994 -0.4372
vn 0.6387 0.7695 0.0000
vn 0.0000 0.8994 0.4372
g Building_1_-_Entablature_Suppot_Cube.046_Mat1
usemtl Mat1
s off
f 10/1/1 2/2/1 4/3/1 11/4/1
f 11/5/2 4/3/2 8/6/2 13/7/2
f 13/8/3 8/6/3 6/9/3 15/10/3
f 15/11/4 6/9/4 2/2/4 10/12/4
f 3/13/5 7/14/5 5/15/5 1/16/5
f 8/6/6 4/3/6 2/2/6 6/9/6
f 5/15/4 16/17/4 9/18/4 1/16/4
f 15/11/7 10/12/7 18/19/7 23/20/7
f 7/14/3 14/21/3 16/22/3 5/15/3
f 13/8/8 15/10/8 23/23/8 21/24/8
f 3/13/2 12/25/2 14/26/2 7/14/2
f 11/5/9 13/7/9 21/27/9 19/28/9
f 1/16/1 9/29/1 12/30/1 3/13/1
f 10/1/10 11/4/10 19/31/10 18/32/10
f 24/33/4 23/34/4 18/35/4 17/36/4
f 22/37/3 21/38/3 23/34/3 24/33/3
f 20/39/2 19/40/2 21/41/2 22/42/2
f 17/43/1 18/44/1 19/40/1 20/39/1
f 12/30/11 9/29/11 17/45/11 20/46/11
f 14/26/12 12/25/12 20/47/12 22/48/12
f 16/22/13 14/21/13 22/49/13 24/50/13
f 9/18/14 16/17/14 24/51/14 17/52/14
