# Blender v2.82 (sub 7) OBJ File: 'tutorial - levelAssets.blend'
# www.blender.org
mtllib platform.mtl
o Roofing_Cube.017
v -6.464918 -0.528746 6.464918
v -6.358374 0.528746 6.358374
v -6.464918 -0.528746 -6.464918
v -6.358374 0.528746 -6.358374
v 6.464918 -0.528746 6.464918
v 6.358374 0.528746 6.358374
v 6.464918 -0.528746 -6.464918
v 6.358374 0.528746 -6.358374
v -6.464918 -0.404090 6.464918
v -6.464918 0.404090 6.464918
v -6.464918 0.404090 -6.464918
v -6.464918 -0.404090 -6.464918
v 6.464918 0.404090 -6.464918
v 6.464918 -0.404090 -6.464918
v 6.464918 0.404090 6.464918
v 6.464918 -0.404090 6.464918
v -6.383241 -0.404090 6.383241
v -6.383241 0.404090 6.383241
v -6.383241 0.404090 -6.383241
v -6.383241 -0.404090 -6.383241
v 6.383240 0.404090 -6.383241
v 6.383240 -0.404090 -6.383241
v 6.383240 0.404090 6.383241
v 6.383240 -0.404090 6.383241
v -6.464918 0.528746 6.464918
v -6.464918 0.528746 -6.464918
v 6.464918 0.528746 -6.464918
v 6.464918 0.528746 6.464918
v -6.503831 0.745975 6.503831
v -6.503831 0.745975 -6.503831
v 6.503831 0.745975 -6.503831
v 6.503831 0.745975 6.503831
v -6.503831 1.053375 6.503831
v -6.503831 1.053375 -6.503831
v 6.503831 1.053375 -6.503831
v 6.503831 1.053375 6.503831
vt 0.482664 0.007794
vt 0.482602 0.015523
vt 0.039703 0.015438
vt 0.039764 0.007708
vt 0.007794 0.043722
vt 0.015523 0.043784
vt 0.015438 0.486683
vt 0.007708 0.486621
vt 0.043722 0.518592
vt 0.043784 0.510862
vt 0.486683 0.510948
vt 0.486621 0.518678
vt 0.518592 0.482664
vt 0.510862 0.482602
vt 0.510948 0.039703
vt 0.518678 0.039765
vt 0.458099 0.984570
vt 0.015430 0.984485
vt 0.015515 0.541815
vt 0.458185 0.541901
vt 0.503280 0.047367
vt 0.503265 0.479036
vt 0.494391 0.483974
vt 0.494407 0.042430
vt 0.015577 0.534090
vt 0.458246 0.534176
vt 0.526274 0.042474
vt 0.526274 0.474984
vt 0.007704 0.984423
vt 0.007790 0.541754
vt 0.483912 0.526274
vt 0.051402 0.526274
vt 0.458037 0.992296
vt 0.015368 0.992210
vt 0.000111 0.483912
vt 0.000111 0.051402
vt 0.465910 0.541963
vt 0.465825 0.984632
vt 0.042474 0.000111
vt 0.474984 0.000111
vt 0.473503 0.544671
vt 0.473503 0.976957
vt 0.455329 0.999889
vt 0.023043 0.999889
vt 0.000111 0.981715
vt 0.000111 0.549429
vt 0.018286 0.526497
vt 0.450571 0.526497
vt 0.479036 0.023120
vt 0.047367 0.023105
vt 0.023120 0.047349
vt 0.023105 0.479018
vt 0.047349 0.503266
vt 0.479018 0.503280
vt 0.483956 0.494407
vt 0.042412 0.494391
vt 0.042413 0.483956
vt 0.483956 0.483973
vt 0.031995 0.042412
vt 0.031979 0.483956
vt 0.483974 0.031995
vt 0.042430 0.031979
vt 0.042429 0.042412
vt 0.483973 0.042429
vt 0.679995 0.989942
vt 0.617622 0.989942
vt 0.617621 0.004668
vt 0.679995 0.004668
vt 0.679995 0.989942
vt 0.617622 0.989942
vt 0.617621 0.004668
vt 0.679995 0.004668
vt 0.679995 0.989942
vt 0.617622 0.989942
vt 0.617621 0.004668
vt 0.679995 0.004668
vt 0.679995 0.989942
vt 0.617622 0.989942
vt 0.617621 0.004668
vt 0.679995 0.004668
vn -1.0000 0.0000 0.0000
vn 0.0000 0.0000 -1.0000
vn 1.0000 0.0000 0.0000
vn 0.0000 0.0000 1.0000
vn 0.0000 -1.0000 0.0000
vn 0.0000 -0.5564 0.8309
vn 0.0000 1.0000 0.0000
vn 0.0000 -0.5564 -0.8309
vn 0.8309 -0.5564 0.0000
vn -0.8309 -0.5564 0.0000
g Roofing_Cube.017_Mat1
usemtl Mat1
s off
f 10/1/1 25/2/1 26/3/1 11/4/1
f 11/5/2 26/6/2 27/7/2 13/8/2
f 13/9/3 27/10/3 28/11/3 15/12/3
f 15/13/4 28/14/4 25/15/4 10/16/4
f 3/17/5 7/18/5 5/19/5 1/20/5
f 2/21/6 6/22/6 32/23/6 29/24/6
f 5/19/4 16/25/4 9/26/4 1/20/4
f 15/13/5 10/16/5 18/27/5 23/28/5
f 7/18/3 14/29/3 16/30/3 5/19/3
f 13/9/5 15/12/5 23/31/5 21/32/5
f 3/17/2 12/33/2 14/34/2 7/18/2
f 11/5/5 13/8/5 21/35/5 19/36/5
f 1/20/1 9/37/1 12/38/1 3/17/1
f 10/1/5 11/4/5 19/39/5 18/40/5
f 12/38/7 9/37/7 17/41/7 20/42/7
f 14/34/7 12/33/7 20/43/7 22/44/7
f 16/30/7 14/29/7 22/45/7 24/46/7
f 9/26/7 16/25/7 24/47/7 17/48/7
f 2/49/7 4/50/7 26/3/7 25/2/7
f 4/51/7 8/52/7 27/7/7 26/6/7
f 8/53/7 6/54/7 28/11/7 27/10/7
f 6/22/7 2/21/7 25/15/7 28/14/7
f 32/55/3 31/56/3 35/57/3 36/58/3
f 8/52/8 4/51/8 30/59/8 31/60/8
f 6/54/9 8/53/9 31/56/9 32/55/9
f 4/50/10 2/49/10 29/61/10 30/62/10
f 35/57/7 34/63/7 33/64/7 36/58/7
f 30/62/1 29/61/1 33/64/1 34/63/1
f 29/24/4 32/23/4 36/58/4 33/64/4
f 31/60/2 30/59/2 34/63/2 35/57/2
g Roofing_Cube.017_Mat2
usemtl Mat2
f 24/65/4 23/66/4 18/67/4 17/68/4
f 22/69/3 21/70/3 23/71/3 24/72/3
f 20/73/2 19/74/2 21/75/2 22/76/2
f 17/77/1 18/78/1 19/79/1 20/80/1
