# Blender v2.82 (sub 7) OBJ File: 'tutorial - levelAssets.blend'
# www.blender.org
mtllib roof.mtl
o Building_1_-_Entablature_Roof_Cube.047
v -0.920165 4.442347 10.385232
v -0.695028 4.442347 10.399012
v 0.695026 4.442347 10.399012
v 0.920163 4.442347 10.385232
v -0.920165 4.442347 -10.385232
v -0.695028 4.442347 -10.399013
v 0.695026 4.442347 -10.399012
v 0.920163 4.442347 -10.385232
v -8.157132 0.000000 14.655213
v -8.583690 -0.000000 14.362910
v -8.370411 0.000000 14.616053
v -8.526542 -0.000000 14.509062
v -1.084977 4.442347 10.347586
v -0.658419 4.442347 10.639889
v -1.027829 4.442347 10.493737
v -0.871698 4.442347 10.600728
v -8.583690 0.000000 -14.362910
v -8.157132 0.000000 -14.655213
v -8.526542 0.000000 -14.509062
v -8.370411 0.000000 -14.616053
v -0.658419 4.442347 -10.639889
v -1.084977 4.442347 -10.347586
v -0.871698 4.442347 -10.600728
v -1.027829 4.442347 -10.493737
v 8.583688 0.000000 14.362910
v 8.157130 0.000000 14.655213
v 8.526540 0.000000 14.509062
v 8.370409 0.000000 14.616053
v 0.658417 4.442347 10.639889
v 1.084975 4.442347 10.347586
v 0.871697 4.442347 10.600728
v 1.027828 4.442347 10.493737
v 8.157130 0.000000 -14.655213
v 8.583688 -0.000000 -14.362910
v 8.370409 0.000000 -14.616053
v 8.526540 -0.000000 -14.509062
v 1.084975 4.442347 -10.347586
v 0.658417 4.442347 -10.639889
v 1.027828 4.442347 -10.493737
v 0.871697 4.442347 -10.600728
vt 0.919357 0.509344
vt 0.732491 0.275337
vt 0.732491 0.234243
vt 0.919357 0.000235
vt 0.999765 0.012426
vt 0.999765 0.553353
vt 0.991572 0.555011
vt 0.991553 0.010825
vt 0.996228 0.005693
vt 0.989135 0.001825
vt 0.272224 0.896664
vt 0.000235 0.771360
vt 0.000235 0.125539
vt 0.272224 0.000235
vt 0.732020 0.509344
vt 0.545153 0.275337
vt 0.545153 0.234243
vt 0.732020 0.000235
vt 0.745090 0.803374
vt 0.745090 0.509815
vt 0.750134 0.514415
vt 0.750134 0.807974
vt 0.755420 0.516778
vt 0.755420 0.810337
vt 0.760535 0.516237
vt 0.760535 0.809796
vt 0.728704 0.510325
vt 0.728704 0.803886
vt 0.723588 0.803376
vt 0.723588 0.509815
vt 0.718302 0.805739
vt 0.718302 0.512178
vt 0.713259 0.810587
vt 0.713258 0.517026
vt 0.744619 0.516778
vt 0.744619 0.810337
vt 0.739576 0.805736
vt 0.739576 0.512178
vt 0.734289 0.803374
vt 0.734289 0.509815
vt 0.729174 0.803914
vt 0.729174 0.510355
vt 0.712788 0.510325
vt 0.712788 0.803886
vt 0.707673 0.803376
vt 0.707673 0.509815
vt 0.702386 0.805738
vt 0.702386 0.512178
vt 0.697343 0.810587
vt 0.697342 0.517026
vt 0.272694 0.000235
vt 0.544683 0.125539
vt 0.544683 0.771360
vt 0.272694 0.896664
vt 0.989188 0.564000
vt 0.980863 0.564644
vt 0.982340 0.555915
vt 0.982285 0.009966
vt 0.980798 0.001176
vt 0.938795 0.563703
vt 0.937308 0.554912
vt 0.937253 0.008964
vt 0.938729 0.000235
vt 0.930458 0.563053
vt 0.928040 0.554054
vt 0.928021 0.009867
vt 0.930405 0.000878
vt 0.923364 0.559186
vt 0.919828 0.552453
vt 0.919828 0.011526
vt 0.923326 0.004768
vt 0.996266 0.560110
vn -0.0903 0.7474 -0.6583
vn -0.0286 0.6964 -0.7170
vn 0.0286 0.6964 -0.7170
vn 0.0903 0.7474 -0.6583
vn -0.2748 0.9606 -0.0412
vn -0.2748 0.9606 0.0412
vn 0.0000 1.0000 -0.0000
vn -0.2165 0.9583 -0.1864
vn 0.4663 0.8788 -0.1014
vn 0.2748 0.9606 -0.0412
vn 0.2748 0.9606 0.0412
vn 0.4663 0.8788 0.1014
vn 0.0903 0.7474 0.6583
vn 0.0286 0.6964 0.7170
vn -0.0286 0.6964 0.7170
vn -0.0903 0.7474 0.6583
vn 0.1739 0.8055 -0.5665
vn 0.2396 0.8417 -0.4839
vn 0.2165 0.9583 -0.1864
vn 0.3728 0.8841 -0.2819
vn -0.4663 0.8788 -0.1014
vn -0.3728 0.8841 -0.2819
vn -0.1739 0.8055 -0.5665
vn -0.2396 0.8417 -0.4839
vn -0.1739 0.8055 0.5665
vn -0.2396 0.8417 0.4839
vn -0.2165 0.9583 0.1864
vn -0.3728 0.8841 0.2819
vn -0.4663 0.8788 0.1014
vn 0.2165 0.9583 0.1864
vn 0.3728 0.8841 0.2819
vn 0.1739 0.8055 0.5665
vn 0.2396 0.8417 0.4839
g Building_1_-_Entablature_Roof_Cube.047_Mat1
usemtl Mat1
s 1
f 18/1/1 21/2/2 38/3/3 33/4/4
f 22/5/5 13/6/6 1/7/7 5/8/7
f 24/9/8 22/5/5 5/8/7 23/10/7
f 34/11/9 37/12/10 30/13/11 25/14/12
f 26/15/13 29/16/14 14/17/15 9/18/16
f 33/19/4 38/20/3 40/21/17 35/22/18
f 35/22/18 40/21/17 39/23/19 36/24/20
f 36/24/20 39/23/19 37/25/10 34/26/9
f 17/27/21 22/28/5 24/29/8 19/30/22
f 19/30/22 24/29/8 23/31/23 20/32/24
f 20/32/24 23/31/23 21/33/2 18/34/1
f 9/35/16 14/36/15 16/37/25 11/38/26
f 11/38/26 16/37/25 15/39/27 12/40/28
f 12/40/28 15/39/27 13/41/6 10/42/29
f 25/43/12 30/44/11 32/45/30 27/46/31
f 27/46/31 32/45/30 31/47/32 28/48/33
f 28/48/33 31/47/32 29/49/14 26/50/13
f 10/51/29 13/52/6 22/53/5 17/54/21
f 1/7/7 16/55/7 14/56/7 2/57/7
f 5/8/7 1/7/7 2/57/7 6/58/7
f 23/10/7 5/8/7 6/58/7 21/59/7
f 2/57/7 14/56/7 29/60/7 3/61/7
f 6/58/7 2/57/7 3/61/7 7/62/7
f 21/59/7 6/58/7 7/62/7 38/63/7
f 3/61/7 29/60/7 31/64/7 4/65/7
f 7/62/7 3/61/7 4/65/7 8/66/7
f 38/63/7 7/62/7 8/66/7 40/67/7
f 4/65/7 31/64/7 32/68/30 30/69/11
f 8/66/7 4/65/7 30/69/11 37/70/10
f 40/67/7 8/66/7 37/70/10 39/71/19
f 13/6/6 15/72/27 16/55/7 1/7/7
