# Blender v2.82 (sub 7) OBJ File: 'tutorial - levelAssets.blend'
# www.blender.org
mtllib roofSmall.mtl
o Roof_Cube.049
v 3.063484 0.159953 -2.022817
v -0.000001 1.738890 -2.022816
v -3.063486 0.159953 -1.696486
v -0.000001 1.738890 -1.696487
v -3.063486 0.159953 -2.022815
v 3.063485 0.159953 -1.696488
v 3.358529 0.159953 3.068319
v 3.358527 0.159953 -2.022817
v 0.000003 1.875090 -2.022816
v -3.358520 0.159953 3.068321
v -3.358522 0.159953 -2.022815
v 3.358529 0.206844 3.068319
v 3.358527 0.206844 -2.022817
v 0.000003 1.921981 -2.022816
v 0.000004 1.921981 3.068320
v -3.358520 0.206844 3.068321
v -3.358522 0.206844 -2.022815
v -3.063486 -1.364425 -2.022815
v -3.358522 -1.364425 -2.022815
v 3.358529 -1.364425 3.068319
v 3.063486 -1.364425 3.068319
v 3.358527 -1.364425 -2.022817
v -3.358520 -1.364425 3.068321
v -3.063484 -1.364425 3.068321
v 3.063484 -1.364425 -2.022817
v 3.063484 -1.133313 -2.022817
v 3.063484 -0.231114 -2.022817
v 3.358527 -0.231114 -2.022817
v 3.358527 -1.133313 -2.022817
v -3.358522 -0.231114 -2.022815
v -3.358522 -1.133313 -2.022815
v -3.358520 -1.133313 3.068321
v -3.358520 -0.231114 3.068321
v 3.358529 -1.133313 3.068319
v 3.358529 -0.231114 3.068319
v -3.063486 -0.231114 -2.022815
v -3.063486 -1.133313 -2.022815
v 2.974348 -1.071968 -1.963959
v 2.974348 -0.292459 -1.963959
v 3.260805 -0.292459 -1.963959
v 3.260805 -1.071968 -1.963959
v -3.260798 -0.292459 -1.963957
v -3.260798 -1.071968 -1.963957
v -3.260797 -1.071968 3.009464
v -3.260797 -0.292459 3.009464
v 3.260807 -1.071968 3.009462
v 3.260807 -0.292459 3.009462
v -2.974347 -0.292459 -1.963957
v -2.974347 -1.071968 -1.963957
vt 0.104985 0.713621
vt 0.104413 0.560574
vt 0.110371 0.548905
vt 0.110371 0.716372
vt 0.098068 0.704705
vt 0.098640 0.551656
vt 0.104027 0.548905
vt 0.104027 0.716373
vt 0.000193 0.698226
vt 0.013074 0.691587
vt 0.083191 0.827630
vt 0.070310 0.834269
vt 0.083191 0.555544
vt 0.841422 0.181049
vt 0.840365 0.462490
vt 0.821780 0.463593
vt 0.822476 0.179464
vt 0.824967 0.164071
vt 0.840307 0.169179
vt 0.097683 0.827630
vt 0.097683 0.555544
vt 0.416388 0.791509
vt 0.416136 0.564161
vt 0.426457 0.564150
vt 0.426709 0.791498
vt 0.708108 0.553218
vt 0.721894 0.553345
vt 0.721583 0.563873
vt 0.708141 0.563635
vt 0.949998 0.000193
vt 0.962586 0.009797
vt 0.822647 0.478230
vt 0.839482 0.475131
vt 0.961553 0.650690
vt 0.944113 0.662449
vt 0.070310 0.548905
vt 0.000193 0.684948
vt 0.708385 0.791546
vt 0.721583 0.791548
vt 0.439853 0.563946
vt 0.439884 0.791483
vt 0.731919 0.563873
vt 0.731918 0.791548
vt 0.426135 0.553729
vt 0.439859 0.553519
vt 0.411232 0.788886
vt 0.410986 0.566795
vt 0.737079 0.566505
vt 0.737079 0.788916
vt 0.843780 0.472644
vt 0.964806 0.644607
vt 0.964806 0.014449
vt 0.844405 0.171531
vt 0.703655 0.548846
vt 0.717510 0.549342
vt 0.430474 0.549718
vt 0.444269 0.549138
vt 0.845989 0.185359
vt 0.965191 0.497942
vt 0.965191 0.233773
vt 0.999807 0.233773
vt 0.999807 0.497942
vt 0.965191 0.510663
vt 0.999807 0.510663
vt 0.965191 0.221052
vt 0.965191 0.000193
vt 0.999807 0.000193
vt 0.999807 0.221052
vt 0.965191 0.731522
vt 0.999807 0.731522
vt 0.845069 0.457973
vt 0.545153 0.736762
vt 0.545153 0.625819
vt 0.547079 0.626456
vt 0.547079 0.737399
vt 0.694946 0.512429
vt 0.694946 0.623372
vt 0.545170 0.623372
vt 0.545170 0.512429
vt 0.696855 0.626456
vt 0.696855 0.737399
vt 0.545153 0.509815
vt 0.694930 0.509815
vt 0.547062 0.623842
vt 0.696839 0.623842
vt 0.696872 0.511446
vt 0.696872 0.622389
vn -0.0000 0.0000 -1.0000
vn 0.4581 -0.8889 -0.0000
vn 0.0000 1.0000 -0.0000
vn -1.0000 0.0000 0.0000
vn 1.0000 0.0000 -0.0000
vn -0.4581 -0.8889 0.0000
vn 0.0000 -1.0000 0.0000
vn -0.5317 0.8470 0.0000
vn 0.5317 0.8469 -0.0000
vn -0.5317 -0.8470 0.0000
vn 0.5317 -0.8469 -0.0000
vn -0.0000 0.6923 -0.7216
vn -0.0000 -0.6923 -0.7216
vn 0.4548 0.8906 -0.0000
vn -0.4548 0.8906 0.0000
g Roof_Cube.049_Mat1
usemtl Mat1
s off
f 2/1/1 5/2/1 11/3/1 9/4/1
f 1/5/1 2/6/1 9/7/1 8/8/1
f 2/9/2 4/10/2 3/11/2 5/12/2
f 3/11/1 4/10/1 6/13/1
f 27/14/1 36/15/1 5/16/1 1/17/1
f 8/18/1 28/19/1 27/14/1 1/17/1
f 5/20/3 3/11/3 6/13/3 1/21/3
f 32/22/4 31/23/4 19/24/4 23/25/4
f 26/26/1 29/27/1 22/28/1 25/29/1
f 7/30/5 35/31/5 28/19/5 8/18/5
f 11/32/4 30/33/4 33/34/4 10/35/4
f 1/36/6 6/13/6 4/10/6 2/37/6
f 21/38/7 25/29/7 22/28/7 20/39/7
f 18/40/7 24/41/7 23/25/7 19/24/7
f 25/29/7 21/38/7 24/41/7 18/40/7
f 29/42/5 34/43/5 20/39/5 22/28/5
f 31/44/1 37/45/1 18/40/1 19/24/1
f 37/45/1 26/26/1 25/29/1 18/40/1
f 31/23/8 32/22/8 44/46/8 43/47/8
f 34/43/9 29/42/9 41/48/9 46/49/9
f 33/34/10 30/33/10 42/50/10 45/51/10
f 28/19/11 35/31/11 47/52/11 40/53/11
f 29/27/12 26/26/12 38/54/12 41/55/12
f 37/45/12 31/44/12 43/56/12 49/57/12
f 27/14/13 28/19/13 40/53/13 39/58/13
f 48/59/1 39/60/1 38/61/1 49/62/1
f 42/63/1 48/59/1 49/62/1 43/64/1
f 40/65/5 47/66/5 46/67/5 41/68/5
f 39/60/1 40/65/1 41/68/1 38/61/1
f 45/69/4 42/63/4 43/64/4 44/70/4
f 36/15/13 27/14/13 39/58/13 48/71/13
f 26/26/12 37/45/12 49/57/12 38/54/12
f 30/33/13 36/15/13 48/71/13 42/50/13
f 5/16/1 36/15/1 30/33/1 11/32/1
g Roof_Cube.049_Mat2
usemtl Mat2
f 9/72/1 11/73/1 17/74/1 14/75/1
f 13/76/14 14/77/14 15/78/14 12/79/14
f 16/80/15 15/81/15 14/75/15 17/74/15
f 7/82/5 8/83/5 13/76/5 12/79/5
f 11/84/4 10/85/4 16/80/4 17/74/4
f 8/86/1 9/87/1 14/77/1 13/76/1
