# Blender v2.82 (sub 7) OBJ File: 'tutorial - levelAssets.blend'
# www.blender.org
mtllib support.mtl
o Support_Cube.050
v -0.774123 -0.774123 3.509683
v -0.774123 0.774123 3.509683
v -0.774123 -0.774123 -3.509683
v -0.774123 0.774123 -3.509683
v 0.774123 -0.774123 3.509683
v 0.774123 0.774123 3.509683
v 0.774123 -0.774123 -3.509683
v 0.774123 0.774123 -3.509683
v -0.774123 -0.559892 3.509683
v -0.774123 0.559894 3.509683
v -0.774123 0.559894 -3.509683
v -0.774123 -0.559892 -3.509683
v 0.774123 0.559894 -3.509683
v 0.774123 -0.559892 -3.509683
v 0.774123 0.559894 3.509683
v 0.774123 -0.559892 3.509683
v -0.694758 -0.559892 3.396545
v -0.694758 0.559894 3.396545
v -0.694758 0.559894 -3.396545
v -0.694758 -0.559892 -3.396545
v 0.694757 0.559894 -3.396545
v 0.694757 -0.559892 -3.396545
v 0.694757 0.559894 3.396545
v 0.694757 -0.559892 3.396545
vt 0.327838 0.441344
vt 0.314971 0.441342
vt 0.315034 0.019751
vt 0.327901 0.019753
vt 0.315036 0.006884
vt 0.222045 0.019737
vt 0.222046 0.006870
vt 0.209178 0.019735
vt 0.221982 0.441328
vt 0.209115 0.441326
vt 0.221980 0.454195
vt 0.314970 0.454209
vt 0.181677 0.441342
vt 0.088687 0.441329
vt 0.088750 0.019737
vt 0.181739 0.019751
vt 0.088752 0.006870
vt 0.181741 0.006884
vt 0.310202 0.461004
vt 0.226746 0.460991
vt 0.075820 0.441327
vt 0.075883 0.019735
vt 0.201936 0.434624
vt 0.201936 0.030055
vt 0.181675 0.454209
vt 0.088686 0.454196
vt 0.226814 0.000076
vt 0.310270 0.000088
vt 0.194606 0.019753
vt 0.194544 0.441344
vt 0.335080 0.026456
vt 0.335080 0.431025
vt 0.201785 0.026455
vt 0.201785 0.431025
vt 0.176907 0.461004
vt 0.093451 0.460992
vt 0.068642 0.434624
vt 0.068642 0.030055
vt 0.093519 0.000076
vt 0.176975 0.000088
vt 0.068490 0.999924
vt 0.000076 0.999924
vt 0.000076 0.915030
vt 0.068490 0.915030
vt 0.068490 0.415106
vt 0.000076 0.415106
vt 0.000076 0.000076
vt 0.068490 0.000076
vt 0.068490 0.500000
vt 0.000076 0.500000
vn -1.0000 0.0000 0.0000
vn 0.0000 0.0000 -1.0000
vn 1.0000 0.0000 0.0000
vn 0.0000 0.0000 1.0000
vn 0.0000 -1.0000 0.0000
vn 0.0000 1.0000 0.0000
g Support_Cube.050_Mat1
usemtl Mat1
s off
f 10/1/1 2/2/1 4/3/1 11/4/1
f 11/5/2 4/3/2 8/6/2 13/7/2
f 13/8/3 8/6/3 6/9/3 15/10/3
f 15/11/4 6/9/4 2/2/4 10/12/4
f 3/13/5 7/14/5 5/15/5 1/16/5
f 8/6/6 4/3/6 2/2/6 6/9/6
f 5/15/4 16/17/4 9/18/4 1/16/4
f 15/11/5 10/12/5 18/19/5 23/20/5
f 7/14/3 14/21/3 16/22/3 5/15/3
f 13/8/5 15/10/5 23/23/5 21/24/5
f 3/13/2 12/25/2 14/26/2 7/14/2
f 11/5/5 13/7/5 21/27/5 19/28/5
f 1/16/1 9/29/1 12/30/1 3/13/1
f 10/1/5 11/4/5 19/31/5 18/32/5
f 12/30/6 9/29/6 17/33/6 20/34/6
f 14/26/6 12/25/6 20/35/6 22/36/6
f 16/22/6 14/21/6 22/37/6 24/38/6
f 9/18/6 16/17/6 24/39/6 17/40/6
g Support_Cube.050_Mat2
usemtl Mat2
f 24/41/4 23/42/4 18/43/4 17/44/4
f 22/45/3 21/46/3 23/47/3 24/48/3
f 20/49/2 19/50/2 21/46/2 22/45/2
f 17/44/1 18/43/1 19/50/1 20/49/1
