# Blender v2.83.4 OBJ File: 'tutorial - levelAssets.blend'
# www.blender.org
mtllib grassLOD0.mtl
o Grass_LOD0_Plane.031
v 1.778211 0.000000 1.498929
v -0.083467 0.000000 2.229790
v 1.778211 1.961093 1.498929
v -0.083467 1.961093 2.229790
v 1.778211 1.307395 1.498929
v 1.778211 0.653698 1.498929
v 1.392469 0.000000 0.877366
v -0.565824 0.000000 0.471058
v 1.392469 1.945018 0.877365
v -0.565824 1.945018 0.471058
v 1.392469 1.296679 0.877366
v 1.392469 0.648339 0.877366
v -0.565824 0.648339 0.471058
v -0.565824 1.296679 0.471058
v 0.413322 0.000000 0.674212
v 0.413322 1.945018 0.674212
v 0.413322 0.648339 0.674212
v 0.413322 1.296679 0.674212
v 1.415672 -0.000000 1.849801
v 0.484552 -0.000000 0.079769
v 1.415672 1.841744 1.849801
v 0.484552 1.841744 0.079769
v 0.950112 -0.000000 0.964785
v 0.950112 1.841744 0.964785
v 1.415672 1.227829 1.849801
v 1.415672 0.613915 1.849801
v 0.484552 0.613915 0.079769
v 0.484552 1.227829 0.079769
v 0.950112 0.613915 0.964785
v 0.950112 1.227829 0.964785
v 0.580661 0.000000 0.329819
v 0.332765 0.000000 2.314397
v 0.580660 2.281656 0.329819
v 0.332765 2.281656 2.314397
v 0.456713 0.000000 1.322108
v 0.456713 2.281656 1.322108
v 0.580660 1.521104 0.329819
v 0.580661 0.760552 0.329819
v 0.332765 0.760552 2.314397
v 0.332765 1.521104 2.314397
v 0.456713 0.760552 1.322108
v 0.456713 1.521104 1.322108
v 1.007509 0.004879 2.060401
v -0.598420 -0.004879 0.868387
v 1.007765 2.139627 2.043683
v -0.598163 2.129869 0.851669
v 0.204544 0.000000 1.464394
v 0.204801 2.134748 1.447676
v 1.007680 1.428045 2.049256
v 1.007594 0.716462 2.054828
v -0.598335 0.706704 0.862815
v -0.598249 1.418287 0.857242
v 0.204630 0.711583 1.458822
v 0.204715 1.423166 1.453249
v -0.105958 0.000000 0.276755
v -0.215291 0.000000 2.273764
v -0.105958 2.000000 0.276755
v -0.215291 2.000000 2.273764
v -0.160625 0.000000 1.275260
v -0.160625 2.000000 1.275260
v -0.105958 1.333333 0.276755
v -0.105958 0.666667 0.276755
v -0.215291 0.666667 2.273764
v -0.215291 1.333333 2.273764
v -0.160625 0.666667 1.275260
v -0.160625 1.333333 1.275260
v -0.670944 0.000000 0.539504
v 0.147002 0.000000 2.364597
v -0.670944 1.861113 0.539504
v 0.147002 1.861113 2.364597
v -0.670944 1.240742 0.539504
v -0.670944 0.620371 0.539504
v 0.147002 0.620371 2.364597
v 0.147002 1.240742 2.364597
v -0.261971 0.000000 1.452050
v -0.261971 1.861113 1.452050
v -0.261971 0.620371 1.452050
v -0.261971 1.240742 1.452050
v -0.083467 1.307395 2.229790
v -0.083467 0.653698 2.229790
v 0.847372 0.000000 1.864360
v 0.847372 1.961093 1.864359
v 0.847372 0.653698 1.864359
v 0.847372 1.307395 1.864359
vt 0.500000 0.000000
vt 1.000000 0.000000
vt 1.000000 0.333333
vt 0.500000 0.333333
vt 1.000000 0.666667
vt 0.500000 0.666667
vt 0.500000 0.666667
vt 1.000000 0.666667
vt 1.000000 1.000000
vt 0.500000 1.000000
vt 0.500000 0.000000
vt 1.000000 0.000000
vt 1.000000 0.333333
vt 0.500000 0.333333
vt 0.000000 0.333333
vt 0.000000 0.666667
vt 0.000000 0.000000
vt 0.000000 1.000000
vt 0.500000 0.666667
vt 1.000000 0.666667
vt 1.000000 1.000000
vt 0.500000 1.000000
vt 0.000000 0.666667
vt 0.000000 1.000000
vt 0.000000 0.000000
vt 0.500000 0.000000
vt 0.500000 0.333333
vt 0.000000 0.333333
vt 1.000000 0.000000
vt 1.000000 0.333333
vt 0.500000 0.666667
vt 1.000000 0.666667
vt 1.000000 1.000000
vt 0.500000 1.000000
vt 0.000000 0.666667
vt 0.000000 1.000000
vt 0.000000 0.000000
vt 0.500000 0.000000
vt 0.500000 0.333333
vt 0.000000 0.333333
vt 1.000000 0.000000
vt 1.000000 0.333333
vt 0.500000 0.666667
vt 1.000000 0.666667
vt 1.000000 1.000000
vt 0.500000 1.000000
vt 0.000000 0.666667
vt 0.000000 1.000000
vt 0.000000 0.000000
vt 0.500000 0.000000
vt 0.500000 0.333333
vt 0.000000 0.333333
vt 1.000000 0.000000
vt 1.000000 0.333333
vt 0.500000 0.666667
vt 1.000000 0.666667
vt 1.000000 1.000000
vt 0.500000 1.000000
vt 0.000000 0.666667
vt 0.000000 1.000000
vt 0.000000 0.000000
vt 0.500000 0.000000
vt 0.500000 0.333333
vt 0.000000 0.333333
vt 1.000000 0.000000
vt 1.000000 0.333333
vt 0.500000 0.666667
vt 1.000000 0.666667
vt 1.000000 1.000000
vt 0.500000 1.000000
vt 0.500000 0.000000
vt 1.000000 0.000000
vt 1.000000 0.333333
vt 0.500000 0.333333
vt 0.000000 0.333333
vt 0.000000 0.666667
vt 0.000000 0.000000
vt 0.000000 1.000000
vt 1.000000 1.000000
vt 0.500000 1.000000
vt 0.000000 0.666667
vt 0.000000 1.000000
vt 0.000000 0.333333
vt 0.000000 0.000000
vn -0.3654 -0.0000 -0.9308
vn 0.2032 -0.0000 -0.9791
vn 0.8850 0.0000 -0.4656
vn -0.9923 -0.0000 -0.1239
vn 0.5960 -0.0064 -0.8029
vn -0.9985 -0.0000 -0.0547
vn -0.9125 -0.0000 0.4090
usemtl None
s off
f 81/1/1 2/2/1 80/3/1 83/4/1
f 83/4/1 80/3/1 79/5/1 84/6/1
f 18/7/2 14/8/2 10/9/2 16/10/2
f 15/11/2 8/12/2 13/13/2 17/14/2
f 17/14/2 13/13/2 14/8/2 18/7/2
f 12/15/2 17/14/2 18/7/2 11/16/2
f 7/17/2 15/11/2 17/14/2 12/15/2
f 11/16/2 18/7/2 16/10/2 9/18/2
f 30/19/3 28/20/3 22/21/3 24/22/3
f 25/23/3 30/19/3 24/22/3 21/24/3
f 19/25/3 23/26/3 29/27/3 26/28/3
f 26/28/3 29/27/3 30/19/3 25/23/3
f 23/26/3 20/29/3 27/30/3 29/27/3
f 29/27/3 27/30/3 28/20/3 30/19/3
f 42/31/4 40/32/4 34/33/4 36/34/4
f 37/35/4 42/31/4 36/34/4 33/36/4
f 31/37/4 35/38/4 41/39/4 38/40/4
f 38/40/4 41/39/4 42/31/4 37/35/4
f 35/38/4 32/41/4 39/42/4 41/39/4
f 41/39/4 39/42/4 40/32/4 42/31/4
f 54/43/5 52/44/5 46/45/5 48/46/5
f 49/47/5 54/43/5 48/46/5 45/48/5
f 43/49/5 47/50/5 53/51/5 50/52/5
f 50/52/5 53/51/5 54/43/5 49/47/5
f 47/50/5 44/53/5 51/54/5 53/51/5
f 53/51/5 51/54/5 52/44/5 54/43/5
f 66/55/6 64/56/6 58/57/6 60/58/6
f 61/59/6 66/55/6 60/58/6 57/60/6
f 55/61/6 59/62/6 65/63/6 62/64/6
f 62/64/6 65/63/6 66/55/6 61/59/6
f 59/62/6 56/65/6 63/66/6 65/63/6
f 65/63/6 63/66/6 64/56/6 66/55/6
f 78/67/7 74/68/7 70/69/7 76/70/7
f 75/71/7 68/72/7 73/73/7 77/74/7
f 77/74/7 73/73/7 74/68/7 78/67/7
f 72/75/7 77/74/7 78/67/7 71/76/7
f 67/77/7 75/71/7 77/74/7 72/75/7
f 71/76/7 78/67/7 76/70/7 69/78/7
f 84/6/1 79/5/1 4/79/1 82/80/1
f 5/81/1 84/6/1 82/80/1 3/82/1
f 6/83/1 83/4/1 84/6/1 5/81/1
f 1/84/1 81/1/1 83/4/1 6/83/1
